<svg xmlns="http://www.w3.org/2000/svg" width="600" height="600" viewBox="0 0 600 600">
  <rect width="600" height="600" fill="#e8f5e9" rx="12"/>
  <rect x="30" y="30" width="540" height="440" rx="16" fill="white" opacity="0.6"/>
  <circle cx="86" cy="277" r="25" fill="#4CAF50" opacity="0.77"/>
  <circle cx="79" cy="270" r="7" fill="white" opacity="0.3"/>
  <circle cx="246" cy="422" r="11" fill="#4CAF50" opacity="0.75"/>
  <circle cx="243" cy="418" r="3" fill="white" opacity="0.3"/>
  <circle cx="331" cy="408" r="25" fill="#4CAF50" opacity="0.64"/>
  <circle cx="323" cy="401" r="7" fill="white" opacity="0.3"/>
  <circle cx="152" cy="287" r="12" fill="#4CAF50" opacity="0.99"/>
  <circle cx="149" cy="283" r="4" fill="white" opacity="0.3"/>
  <circle cx="228" cy="108" r="26" fill="#4CAF50" opacity="0.85"/>
  <circle cx="221" cy="100" r="8" fill="white" opacity="0.3"/>
  <circle cx="418" cy="149" r="12" fill="#4CAF50" opacity="0.95"/>
  <circle cx="415" cy="146" r="4" fill="white" opacity="0.3"/>
  <circle cx="526" cy="321" r="26" fill="#4CAF50" opacity="0.85"/>
  <circle cx="518" cy="313" r="8" fill="white" opacity="0.3"/>
  <circle cx="374" cy="429" r="19" fill="#4CAF50" opacity="0.79"/>
  <circle cx="369" cy="423" r="6" fill="white" opacity="0.3"/>
  <circle cx="201" cy="143" r="17" fill="#4CAF50" opacity="0.70"/>
  <circle cx="196" cy="138" r="5" fill="white" opacity="0.3"/>
  <circle cx="368" cy="305" r="26" fill="#4CAF50" opacity="0.76"/>
  <circle cx="361" cy="297" r="8" fill="white" opacity="0.3"/>
  <circle cx="103" cy="124" r="25" fill="#4CAF50" opacity="0.98"/>
  <circle cx="96" cy="117" r="7" fill="white" opacity="0.3"/>
  <circle cx="476" cy="74" r="13" fill="#4CAF50" opacity="0.88"/>
  <circle cx="472" cy="70" r="4" fill="white" opacity="0.3"/>
  <circle cx="369" cy="165" r="19" fill="#4CAF50" opacity="0.61"/>
  <circle cx="363" cy="159" r="6" fill="white" opacity="0.3"/>
  <circle cx="285" cy="143" r="13" fill="#4CAF50" opacity="0.73"/>
  <circle cx="281" cy="139" r="4" fill="white" opacity="0.3"/>
  <circle cx="83" cy="274" r="11" fill="#4CAF50" opacity="0.71"/>
  <circle cx="80" cy="271" r="3" fill="white" opacity="0.3"/>
  <circle cx="281" cy="94" r="18" fill="#4CAF50" opacity="0.90"/>
  <circle cx="276" cy="89" r="5" fill="white" opacity="0.3"/>
  <circle cx="367" cy="310" r="25" fill="#4CAF50" opacity="0.76"/>
  <circle cx="360" cy="303" r="7" fill="white" opacity="0.3"/>
  <circle cx="446" cy="319" r="12" fill="#4CAF50" opacity="0.69"/>
  <circle cx="443" cy="316" r="4" fill="white" opacity="0.3"/>
  <circle cx="499" cy="69" r="14" fill="#4CAF50" opacity="0.75"/>
  <circle cx="495" cy="65" r="4" fill="white" opacity="0.3"/>
  <circle cx="169" cy="313" r="23" fill="#4CAF50" opacity="0.91"/>
  <circle cx="162" cy="306" r="7" fill="white" opacity="0.3"/>
  <circle cx="379" cy="285" r="17" fill="#4CAF50" opacity="0.73"/>
  <circle cx="374" cy="280" r="5" fill="white" opacity="0.3"/>
  <circle cx="394" cy="410" r="18" fill="#4CAF50" opacity="0.65"/>
  <circle cx="389" cy="405" r="5" fill="white" opacity="0.3"/>
  <circle cx="318" cy="380" r="17" fill="#4CAF50" opacity="0.94"/>
  <circle cx="313" cy="375" r="5" fill="white" opacity="0.3"/>
  <circle cx="98" cy="201" r="11" fill="#4CAF50" opacity="0.87"/>
  <circle cx="95" cy="197" r="3" fill="white" opacity="0.3"/>
  <circle cx="526" cy="80" r="17" fill="#4CAF50" opacity="0.90"/>
  <circle cx="521" cy="75" r="5" fill="white" opacity="0.3"/>
  <circle cx="529" cy="374" r="14" fill="#4CAF50" opacity="0.83"/>
  <circle cx="524" cy="370" r="4" fill="white" opacity="0.3"/>
  <circle cx="404" cy="361" r="10" fill="#4CAF50" opacity="0.73"/>
  <circle cx="401" cy="358" r="3" fill="white" opacity="0.3"/>
  <circle cx="389" cy="282" r="11" fill="#4CAF50" opacity="0.71"/>
  <circle cx="386" cy="278" r="3" fill="white" opacity="0.3"/>
  <circle cx="241" cy="369" r="23" fill="#4CAF50" opacity="0.89"/>
  <circle cx="234" cy="362" r="7" fill="white" opacity="0.3"/>
  <circle cx="181" cy="364" r="22" fill="#4CAF50" opacity="0.97"/>
  <circle cx="175" cy="358" r="7" fill="white" opacity="0.3"/>
  <circle cx="87" cy="202" r="21" fill="#4CAF50" opacity="0.95"/>
  <circle cx="81" cy="196" r="6" fill="white" opacity="0.3"/>
  <circle cx="221" cy="325" r="16" fill="#4CAF50" opacity="0.62"/>
  <circle cx="216" cy="321" r="5" fill="white" opacity="0.3"/>
  <circle cx="99" cy="405" r="12" fill="#4CAF50" opacity="0.91"/>
  <circle cx="96" cy="401" r="4" fill="white" opacity="0.3"/>
  <circle cx="522" cy="170" r="25" fill="#4CAF50" opacity="0.69"/>
  <circle cx="515" cy="163" r="7" fill="white" opacity="0.3"/>
  <circle cx="526" cy="317" r="11" fill="#4CAF50" opacity="0.89"/>
  <circle cx="523" cy="314" r="3" fill="white" opacity="0.3"/>
  <circle cx="431" cy="136" r="14" fill="#4CAF50" opacity="0.76"/>
  <circle cx="427" cy="132" r="4" fill="white" opacity="0.3"/>
  <circle cx="349" cy="337" r="24" fill="#4CAF50" opacity="0.88"/>
  <circle cx="342" cy="330" r="7" fill="white" opacity="0.3"/>
  <circle cx="279" cy="404" r="13" fill="#4CAF50" opacity="0.88"/>
  <circle cx="275" cy="400" r="4" fill="white" opacity="0.3"/>
  <circle cx="214" cy="143" r="20" fill="#4CAF50" opacity="0.94"/>
  <circle cx="208" cy="137" r="6" fill="white" opacity="0.3"/>
  <circle cx="335" cy="303" r="19" fill="#4CAF50" opacity="0.82"/>
  <circle cx="329" cy="297" r="6" fill="white" opacity="0.3"/>
  <circle cx="248" cy="213" r="14" fill="#4CAF50" opacity="0.81"/>
  <circle cx="244" cy="209" r="4" fill="white" opacity="0.3"/>
  <circle cx="252" cy="336" r="26" fill="#4CAF50" opacity="0.61"/>
  <circle cx="245" cy="328" r="8" fill="white" opacity="0.3"/>
  <circle cx="61" cy="107" r="13" fill="#4CAF50" opacity="0.91"/>
  <circle cx="57" cy="103" r="4" fill="white" opacity="0.3"/>
  <circle cx="316" cy="363" r="21" fill="#4CAF50" opacity="0.94"/>
  <circle cx="310" cy="356" r="6" fill="white" opacity="0.3"/>
  <circle cx="472" cy="371" r="19" fill="#4CAF50" opacity="0.99"/>
  <circle cx="466" cy="365" r="6" fill="white" opacity="0.3"/>
  <circle cx="165" cy="334" r="21" fill="#4CAF50" opacity="0.65"/>
  <circle cx="159" cy="328" r="6" fill="white" opacity="0.3"/>
  <circle cx="314" cy="287" r="10" fill="#4CAF50" opacity="0.66"/>
  <circle cx="311" cy="284" r="3" fill="white" opacity="0.3"/>
  <circle cx="286" cy="412" r="16" fill="#4CAF50" opacity="0.65"/>
  <circle cx="281" cy="407" r="5" fill="white" opacity="0.3"/>
  <circle cx="438" cy="399" r="16" fill="#4CAF50" opacity="0.76"/>
  <circle cx="433" cy="394" r="5" fill="white" opacity="0.3"/>
  <circle cx="334" cy="347" r="19" fill="#4CAF50" opacity="0.93"/>
  <circle cx="328" cy="341" r="6" fill="white" opacity="0.3"/>
  <circle cx="85" cy="169" r="20" fill="#4CAF50" opacity="0.91"/>
  <circle cx="79" cy="163" r="6" fill="white" opacity="0.3"/>
  <circle cx="528" cy="288" r="24" fill="#4CAF50" opacity="0.65"/>
  <circle cx="521" cy="280" r="7" fill="white" opacity="0.3"/>
  <circle cx="118" cy="317" r="22" fill="#4CAF50" opacity="0.93"/>
  <circle cx="112" cy="311" r="6" fill="white" opacity="0.3"/>
  <circle cx="76" cy="265" r="10" fill="#4CAF50" opacity="0.82"/>
  <circle cx="73" cy="262" r="3" fill="white" opacity="0.3"/>
  <circle cx="540" cy="197" r="14" fill="#4CAF50" opacity="0.87"/>
  <circle cx="535" cy="193" r="4" fill="white" opacity="0.3"/>
  <circle cx="294" cy="177" r="16" fill="#4CAF50" opacity="0.87"/>
  <circle cx="289" cy="172" r="5" fill="white" opacity="0.3"/>
  <circle cx="449" cy="330" r="17" fill="#4CAF50" opacity="0.82"/>
  <circle cx="444" cy="325" r="5" fill="white" opacity="0.3"/>
  <circle cx="228" cy="209" r="12" fill="#4CAF50" opacity="0.76"/>
  <circle cx="224" cy="206" r="4" fill="white" opacity="0.3"/>
  <circle cx="364" cy="62" r="15" fill="#4CAF50" opacity="0.68"/>
  <circle cx="360" cy="58" r="5" fill="white" opacity="0.3"/>
  <circle cx="221" cy="224" r="25" fill="#4CAF50" opacity="0.82"/>
  <circle cx="213" cy="216" r="8" fill="white" opacity="0.3"/>
  <circle cx="331" cy="160" r="22" fill="#4CAF50" opacity="0.78"/>
  <circle cx="325" cy="154" r="7" fill="white" opacity="0.3"/>
  <circle cx="486" cy="169" r="21" fill="#4CAF50" opacity="0.60"/>
  <circle cx="480" cy="162" r="6" fill="white" opacity="0.3"/>
  <circle cx="320" cy="404" r="15" fill="#4CAF50" opacity="0.85"/>
  <circle cx="315" cy="399" r="5" fill="white" opacity="0.3"/>
  <circle cx="378" cy="358" r="19" fill="#4CAF50" opacity="0.85"/>
  <circle cx="372" cy="352" r="6" fill="white" opacity="0.3"/>
  <circle cx="78" cy="82" r="21" fill="#4CAF50" opacity="0.86"/>
  <circle cx="71" cy="75" r="6" fill="white" opacity="0.3"/>
  <circle cx="261" cy="296" r="13" fill="#4CAF50" opacity="0.96"/>
  <circle cx="257" cy="293" r="4" fill="white" opacity="0.3"/>
  <circle cx="513" cy="299" r="12" fill="#4CAF50" opacity="0.63"/>
  <circle cx="509" cy="296" r="4" fill="white" opacity="0.3"/>
  <circle cx="438" cy="310" r="11" fill="#4CAF50" opacity="0.86"/>
  <circle cx="435" cy="306" r="3" fill="white" opacity="0.3"/>
  <circle cx="399" cy="148" r="12" fill="#4CAF50" opacity="0.73"/>
  <circle cx="395" cy="144" r="4" fill="white" opacity="0.3"/>
  <circle cx="395" cy="230" r="16" fill="#4CAF50" opacity="0.80"/>
  <circle cx="390" cy="225" r="5" fill="white" opacity="0.3"/>
  <circle cx="363" cy="167" r="20" fill="#4CAF50" opacity="0.72"/>
  <circle cx="357" cy="161" r="6" fill="white" opacity="0.3"/>
  <circle cx="239" cy="134" r="25" fill="#4CAF50" opacity="0.85"/>
  <circle cx="231" cy="127" r="8" fill="white" opacity="0.3"/>
  <circle cx="104" cy="175" r="12" fill="#4CAF50" opacity="0.85"/>
  <circle cx="100" cy="171" r="4" fill="white" opacity="0.3"/>
  <circle cx="238" cy="221" r="20" fill="#4CAF50" opacity="0.98"/>
  <circle cx="232" cy="215" r="6" fill="white" opacity="0.3"/>
  <circle cx="349" cy="153" r="22" fill="#4CAF50" opacity="0.91"/>
  <circle cx="342" cy="146" r="7" fill="white" opacity="0.3"/>
  <circle cx="189" cy="249" r="18" fill="#4CAF50" opacity="0.81"/>
  <circle cx="184" cy="244" r="5" fill="white" opacity="0.3"/>
  <circle cx="468" cy="211" r="15" fill="#4CAF50" opacity="0.76"/>
  <circle cx="464" cy="206" r="5" fill="white" opacity="0.3"/>
  <circle cx="233" cy="251" r="12" fill="#4CAF50" opacity="0.74"/>
  <circle cx="229" cy="248" r="4" fill="white" opacity="0.3"/>
  <circle cx="373" cy="200" r="19" fill="#4CAF50" opacity="0.62"/>
  <circle cx="367" cy="194" r="6" fill="white" opacity="0.3"/>
  <circle cx="212" cy="235" r="23" fill="#4CAF50" opacity="0.74"/>
  <circle cx="205" cy="228" r="7" fill="white" opacity="0.3"/>
  <circle cx="70" cy="181" r="16" fill="#4CAF50" opacity="0.90"/>
  <circle cx="66" cy="176" r="5" fill="white" opacity="0.3"/>
  <circle cx="356" cy="399" r="23" fill="#4CAF50" opacity="0.71"/>
  <circle cx="349" cy="392" r="7" fill="white" opacity="0.3"/>
  <circle cx="440" cy="234" r="11" fill="#4CAF50" opacity="0.95"/>
  <circle cx="436" cy="231" r="3" fill="white" opacity="0.3"/>
  <circle cx="251" cy="196" r="17" fill="#4CAF50" opacity="0.62"/>
  <circle cx="245" cy="191" r="5" fill="white" opacity="0.3"/>
  <circle cx="68" cy="140" r="12" fill="#4CAF50" opacity="0.69"/>
  <circle cx="64" cy="136" r="4" fill="white" opacity="0.3"/>
  <circle cx="63" cy="104" r="21" fill="#4CAF50" opacity="0.63"/>
  <circle cx="56" cy="98" r="6" fill="white" opacity="0.3"/>
  <circle cx="439" cy="402" r="12" fill="#4CAF50" opacity="0.70"/>
  <circle cx="436" cy="398" r="4" fill="white" opacity="0.3"/>
  <circle cx="382" cy="202" r="23" fill="#4CAF50" opacity="0.75"/>
  <circle cx="375" cy="196" r="7" fill="white" opacity="0.3"/>
  <circle cx="217" cy="338" r="17" fill="#4CAF50" opacity="0.91"/>
  <circle cx="211" cy="333" r="5" fill="white" opacity="0.3"/>
  <circle cx="77" cy="208" r="21" fill="#4CAF50" opacity="0.61"/>
  <circle cx="70" cy="201" r="6" fill="white" opacity="0.3"/>

  <rect x="0" y="480" width="600" height="120" fill="white"/>
  <line x1="0" y1="480" x2="600" y2="480" stroke="#e5e7eb" stroke-width="1"/>
  <text x="300" y="525" text-anchor="middle" font-family="system-ui,-apple-system,sans-serif" font-size="26" font-weight="700" fill="#1f2937">HDPE Xanh Lá</text>
  <text x="300" y="558" text-anchor="middle" font-family="system-ui,-apple-system,sans-serif" font-size="15" fill="#6b7280">Hạt nhựa tái chế chất lượng cao</text>
</svg>