<svg xmlns="http://www.w3.org/2000/svg" width="600" height="600" viewBox="0 0 600 600">
  <rect width="600" height="600" fill="#f5f5f5" rx="12"/>
  <rect x="30" y="30" width="540" height="440" rx="16" fill="white" opacity="0.6"/>
  <circle cx="226" cy="221" r="20" fill="#dce0e3" opacity="0.98"/>
  <circle cx="220" cy="215" r="6" fill="white" opacity="0.3"/>
  <circle cx="209" cy="215" r="25" fill="#dce0e3" opacity="0.80"/>
  <circle cx="201" cy="207" r="7" fill="white" opacity="0.3"/>
  <circle cx="173" cy="216" r="16" fill="#dce0e3" opacity="0.78"/>
  <circle cx="168" cy="211" r="5" fill="white" opacity="0.3"/>
  <circle cx="80" cy="287" r="14" fill="#dce0e3" opacity="0.66"/>
  <circle cx="76" cy="283" r="4" fill="white" opacity="0.3"/>
  <circle cx="363" cy="349" r="21" fill="#dce0e3" opacity="0.78"/>
  <circle cx="357" cy="343" r="6" fill="white" opacity="0.3"/>
  <circle cx="304" cy="327" r="25" fill="#dce0e3" opacity="0.90"/>
  <circle cx="296" cy="320" r="7" fill="white" opacity="0.3"/>
  <circle cx="74" cy="215" r="22" fill="#dce0e3" opacity="0.63"/>
  <circle cx="67" cy="209" r="7" fill="white" opacity="0.3"/>
  <circle cx="330" cy="390" r="19" fill="#dce0e3" opacity="0.75"/>
  <circle cx="325" cy="384" r="6" fill="white" opacity="0.3"/>
  <circle cx="430" cy="177" r="14" fill="#dce0e3" opacity="0.92"/>
  <circle cx="425" cy="173" r="4" fill="white" opacity="0.3"/>
  <circle cx="274" cy="230" r="21" fill="#dce0e3" opacity="0.82"/>
  <circle cx="268" cy="224" r="6" fill="white" opacity="0.3"/>
  <circle cx="425" cy="74" r="19" fill="#dce0e3" opacity="0.89"/>
  <circle cx="419" cy="68" r="6" fill="white" opacity="0.3"/>
  <circle cx="126" cy="61" r="13" fill="#dce0e3" opacity="0.98"/>
  <circle cx="122" cy="57" r="4" fill="white" opacity="0.3"/>
  <circle cx="204" cy="136" r="20" fill="#dce0e3" opacity="0.99"/>
  <circle cx="197" cy="129" r="6" fill="white" opacity="0.3"/>
  <circle cx="397" cy="263" r="16" fill="#dce0e3" opacity="0.93"/>
  <circle cx="392" cy="258" r="5" fill="white" opacity="0.3"/>
  <circle cx="397" cy="335" r="16" fill="#dce0e3" opacity="0.97"/>
  <circle cx="392" cy="330" r="5" fill="white" opacity="0.3"/>
  <circle cx="394" cy="251" r="21" fill="#dce0e3" opacity="0.67"/>
  <circle cx="388" cy="245" r="6" fill="white" opacity="0.3"/>
  <circle cx="406" cy="217" r="15" fill="#dce0e3" opacity="0.63"/>
  <circle cx="402" cy="213" r="4" fill="white" opacity="0.3"/>
  <circle cx="266" cy="310" r="21" fill="#dce0e3" opacity="0.97"/>
  <circle cx="260" cy="304" r="6" fill="white" opacity="0.3"/>
  <circle cx="471" cy="265" r="19" fill="#dce0e3" opacity="0.94"/>
  <circle cx="465" cy="259" r="6" fill="white" opacity="0.3"/>
  <circle cx="304" cy="223" r="19" fill="#dce0e3" opacity="0.97"/>
  <circle cx="298" cy="218" r="6" fill="white" opacity="0.3"/>
  <circle cx="226" cy="128" r="18" fill="#dce0e3" opacity="0.61"/>
  <circle cx="220" cy="123" r="6" fill="white" opacity="0.3"/>
  <circle cx="95" cy="173" r="24" fill="#dce0e3" opacity="0.78"/>
  <circle cx="88" cy="166" r="7" fill="white" opacity="0.3"/>
  <circle cx="501" cy="120" r="20" fill="#dce0e3" opacity="0.81"/>
  <circle cx="495" cy="114" r="6" fill="white" opacity="0.3"/>
  <circle cx="390" cy="379" r="17" fill="#dce0e3" opacity="0.70"/>
  <circle cx="385" cy="374" r="5" fill="white" opacity="0.3"/>
  <circle cx="266" cy="66" r="12" fill="#dce0e3" opacity="0.65"/>
  <circle cx="262" cy="63" r="4" fill="white" opacity="0.3"/>
  <circle cx="323" cy="214" r="14" fill="#dce0e3" opacity="0.70"/>
  <circle cx="318" cy="210" r="4" fill="white" opacity="0.3"/>
  <circle cx="503" cy="118" r="12" fill="#dce0e3" opacity="0.69"/>
  <circle cx="499" cy="114" r="4" fill="white" opacity="0.3"/>
  <circle cx="487" cy="367" r="13" fill="#dce0e3" opacity="0.86"/>
  <circle cx="483" cy="363" r="4" fill="white" opacity="0.3"/>
  <circle cx="520" cy="181" r="11" fill="#dce0e3" opacity="0.99"/>
  <circle cx="517" cy="178" r="3" fill="white" opacity="0.3"/>
  <circle cx="490" cy="419" r="21" fill="#dce0e3" opacity="0.85"/>
  <circle cx="483" cy="413" r="6" fill="white" opacity="0.3"/>
  <circle cx="79" cy="287" r="24" fill="#dce0e3" opacity="0.97"/>
  <circle cx="71" cy="280" r="7" fill="white" opacity="0.3"/>
  <circle cx="430" cy="125" r="25" fill="#dce0e3" opacity="0.70"/>
  <circle cx="423" cy="117" r="7" fill="white" opacity="0.3"/>
  <circle cx="211" cy="117" r="21" fill="#dce0e3" opacity="0.85"/>
  <circle cx="204" cy="111" r="6" fill="white" opacity="0.3"/>
  <circle cx="376" cy="91" r="22" fill="#dce0e3" opacity="0.72"/>
  <circle cx="369" cy="84" r="7" fill="white" opacity="0.3"/>
  <circle cx="332" cy="140" r="22" fill="#dce0e3" opacity="0.81"/>
  <circle cx="325" cy="133" r="7" fill="white" opacity="0.3"/>
  <circle cx="330" cy="348" r="15" fill="#dce0e3" opacity="0.89"/>
  <circle cx="325" cy="344" r="5" fill="white" opacity="0.3"/>
  <circle cx="350" cy="295" r="23" fill="#dce0e3" opacity="0.99"/>
  <circle cx="343" cy="288" r="7" fill="white" opacity="0.3"/>
  <circle cx="454" cy="251" r="23" fill="#dce0e3" opacity="0.70"/>
  <circle cx="447" cy="244" r="7" fill="white" opacity="0.3"/>
  <circle cx="330" cy="438" r="19" fill="#dce0e3" opacity="0.72"/>
  <circle cx="324" cy="432" r="6" fill="white" opacity="0.3"/>
  <circle cx="154" cy="96" r="25" fill="#dce0e3" opacity="0.87"/>
  <circle cx="147" cy="88" r="8" fill="white" opacity="0.3"/>
  <circle cx="390" cy="122" r="18" fill="#dce0e3" opacity="0.84"/>
  <circle cx="384" cy="116" r="5" fill="white" opacity="0.3"/>
  <circle cx="182" cy="247" r="12" fill="#dce0e3" opacity="0.99"/>
  <circle cx="178" cy="243" r="4" fill="white" opacity="0.3"/>
  <circle cx="96" cy="161" r="17" fill="#dce0e3" opacity="0.82"/>
  <circle cx="91" cy="156" r="5" fill="white" opacity="0.3"/>
  <circle cx="466" cy="275" r="17" fill="#dce0e3" opacity="0.94"/>
  <circle cx="461" cy="269" r="5" fill="white" opacity="0.3"/>
  <circle cx="138" cy="294" r="21" fill="#dce0e3" opacity="0.63"/>
  <circle cx="132" cy="288" r="6" fill="white" opacity="0.3"/>
  <circle cx="218" cy="135" r="20" fill="#dce0e3" opacity="0.70"/>
  <circle cx="212" cy="129" r="6" fill="white" opacity="0.3"/>
  <circle cx="208" cy="205" r="17" fill="#dce0e3" opacity="0.98"/>
  <circle cx="203" cy="200" r="5" fill="white" opacity="0.3"/>
  <circle cx="285" cy="200" r="16" fill="#dce0e3" opacity="0.65"/>
  <circle cx="280" cy="195" r="5" fill="white" opacity="0.3"/>
  <circle cx="334" cy="268" r="17" fill="#dce0e3" opacity="0.90"/>
  <circle cx="329" cy="263" r="5" fill="white" opacity="0.3"/>
  <circle cx="402" cy="229" r="21" fill="#dce0e3" opacity="0.66"/>
  <circle cx="396" cy="223" r="6" fill="white" opacity="0.3"/>
  <circle cx="300" cy="62" r="20" fill="#dce0e3" opacity="0.66"/>
  <circle cx="294" cy="56" r="6" fill="white" opacity="0.3"/>
  <circle cx="528" cy="403" r="13" fill="#dce0e3" opacity="0.73"/>
  <circle cx="524" cy="399" r="4" fill="white" opacity="0.3"/>
  <circle cx="530" cy="144" r="12" fill="#dce0e3" opacity="0.94"/>
  <circle cx="526" cy="140" r="4" fill="white" opacity="0.3"/>
  <circle cx="120" cy="327" r="18" fill="#dce0e3" opacity="0.68"/>
  <circle cx="114" cy="321" r="5" fill="white" opacity="0.3"/>
  <circle cx="356" cy="207" r="18" fill="#dce0e3" opacity="0.84"/>
  <circle cx="350" cy="201" r="5" fill="white" opacity="0.3"/>
  <circle cx="79" cy="345" r="22" fill="#dce0e3" opacity="0.90"/>
  <circle cx="73" cy="338" r="7" fill="white" opacity="0.3"/>
  <circle cx="367" cy="410" r="23" fill="#dce0e3" opacity="0.73"/>
  <circle cx="361" cy="403" r="7" fill="white" opacity="0.3"/>
  <circle cx="321" cy="328" r="21" fill="#dce0e3" opacity="0.62"/>
  <circle cx="315" cy="322" r="6" fill="white" opacity="0.3"/>
  <circle cx="466" cy="311" r="19" fill="#dce0e3" opacity="0.66"/>
  <circle cx="460" cy="306" r="6" fill="white" opacity="0.3"/>
  <circle cx="68" cy="261" r="19" fill="#dce0e3" opacity="0.89"/>
  <circle cx="62" cy="255" r="6" fill="white" opacity="0.3"/>
  <circle cx="170" cy="316" r="21" fill="#dce0e3" opacity="0.64"/>
  <circle cx="164" cy="310" r="6" fill="white" opacity="0.3"/>
  <circle cx="133" cy="415" r="15" fill="#dce0e3" opacity="0.91"/>
  <circle cx="129" cy="411" r="4" fill="white" opacity="0.3"/>
  <circle cx="368" cy="323" r="17" fill="#dce0e3" opacity="0.67"/>
  <circle cx="363" cy="318" r="5" fill="white" opacity="0.3"/>
  <circle cx="518" cy="112" r="12" fill="#dce0e3" opacity="0.60"/>
  <circle cx="515" cy="109" r="4" fill="white" opacity="0.3"/>
  <circle cx="237" cy="165" r="11" fill="#dce0e3" opacity="0.69"/>
  <circle cx="234" cy="161" r="3" fill="white" opacity="0.3"/>
  <circle cx="96" cy="71" r="24" fill="#dce0e3" opacity="0.63"/>
  <circle cx="89" cy="63" r="7" fill="white" opacity="0.3"/>
  <circle cx="445" cy="78" r="16" fill="#dce0e3" opacity="0.93"/>
  <circle cx="440" cy="74" r="5" fill="white" opacity="0.3"/>
  <circle cx="101" cy="180" r="10" fill="#dce0e3" opacity="0.90"/>
  <circle cx="98" cy="177" r="3" fill="white" opacity="0.3"/>
  <circle cx="365" cy="97" r="18" fill="#dce0e3" opacity="0.85"/>
  <circle cx="359" cy="92" r="5" fill="white" opacity="0.3"/>
  <circle cx="140" cy="430" r="20" fill="#dce0e3" opacity="0.92"/>
  <circle cx="134" cy="424" r="6" fill="white" opacity="0.3"/>
  <circle cx="267" cy="61" r="10" fill="#dce0e3" opacity="0.88"/>
  <circle cx="264" cy="58" r="3" fill="white" opacity="0.3"/>
  <circle cx="221" cy="300" r="23" fill="#dce0e3" opacity="0.77"/>
  <circle cx="214" cy="293" r="7" fill="white" opacity="0.3"/>
  <circle cx="174" cy="282" r="23" fill="#dce0e3" opacity="0.88"/>
  <circle cx="167" cy="275" r="7" fill="white" opacity="0.3"/>
  <circle cx="390" cy="365" r="17" fill="#dce0e3" opacity="0.88"/>
  <circle cx="385" cy="360" r="5" fill="white" opacity="0.3"/>
  <circle cx="111" cy="344" r="22" fill="#dce0e3" opacity="0.78"/>
  <circle cx="105" cy="337" r="7" fill="white" opacity="0.3"/>
  <circle cx="534" cy="69" r="12" fill="#dce0e3" opacity="0.84"/>
  <circle cx="531" cy="65" r="4" fill="white" opacity="0.3"/>
  <circle cx="117" cy="336" r="26" fill="#dce0e3" opacity="0.93"/>
  <circle cx="109" cy="328" r="8" fill="white" opacity="0.3"/>
  <circle cx="282" cy="183" r="11" fill="#dce0e3" opacity="0.83"/>
  <circle cx="279" cy="180" r="3" fill="white" opacity="0.3"/>
  <circle cx="462" cy="380" r="17" fill="#dce0e3" opacity="0.91"/>
  <circle cx="457" cy="375" r="5" fill="white" opacity="0.3"/>
  <circle cx="332" cy="277" r="25" fill="#dce0e3" opacity="0.90"/>
  <circle cx="325" cy="269" r="7" fill="white" opacity="0.3"/>
  <circle cx="348" cy="391" r="26" fill="#dce0e3" opacity="0.65"/>
  <circle cx="340" cy="383" r="8" fill="white" opacity="0.3"/>
  <circle cx="394" cy="160" r="19" fill="#dce0e3" opacity="0.63"/>
  <circle cx="389" cy="154" r="6" fill="white" opacity="0.3"/>
  <circle cx="334" cy="343" r="15" fill="#dce0e3" opacity="0.73"/>
  <circle cx="330" cy="338" r="5" fill="white" opacity="0.3"/>
  <circle cx="298" cy="353" r="17" fill="#dce0e3" opacity="0.82"/>
  <circle cx="293" cy="347" r="5" fill="white" opacity="0.3"/>
  <circle cx="342" cy="411" r="22" fill="#dce0e3" opacity="0.68"/>
  <circle cx="336" cy="405" r="7" fill="white" opacity="0.3"/>
  <circle cx="170" cy="264" r="13" fill="#dce0e3" opacity="0.97"/>
  <circle cx="166" cy="260" r="4" fill="white" opacity="0.3"/>
  <circle cx="162" cy="92" r="25" fill="#dce0e3" opacity="0.95"/>
  <circle cx="154" cy="85" r="7" fill="white" opacity="0.3"/>
  <circle cx="539" cy="193" r="13" fill="#dce0e3" opacity="0.73"/>
  <circle cx="535" cy="190" r="4" fill="white" opacity="0.3"/>
  <circle cx="426" cy="239" r="26" fill="#dce0e3" opacity="0.98"/>
  <circle cx="418" cy="231" r="8" fill="white" opacity="0.3"/>
  <circle cx="487" cy="63" r="18" fill="#dce0e3" opacity="0.97"/>
  <circle cx="481" cy="58" r="6" fill="white" opacity="0.3"/>

  <rect x="0" y="480" width="600" height="120" fill="white"/>
  <line x1="0" y1="480" x2="600" y2="480" stroke="#e5e7eb" stroke-width="1"/>
  <text x="300" y="525" text-anchor="middle" font-family="system-ui,-apple-system,sans-serif" font-size="26" font-weight="700" fill="#1f2937">LDPE Trắng Đục</text>
  <text x="300" y="558" text-anchor="middle" font-family="system-ui,-apple-system,sans-serif" font-size="15" fill="#6b7280">Hạt nhựa tái chế chất lượng cao</text>
</svg>