<svg xmlns="http://www.w3.org/2000/svg" width="600" height="600" viewBox="0 0 600 600">
  <rect width="600" height="600" fill="#f1f8ff" rx="12"/>
  <rect x="30" y="30" width="540" height="440" rx="16" fill="white" opacity="0.6"/>
  <circle cx="91" cy="212" r="22" fill="#c8dff0" opacity="0.61"/>
  <circle cx="85" cy="206" r="7" fill="white" opacity="0.3"/>
  <circle cx="430" cy="297" r="20" fill="#c8dff0" opacity="0.61"/>
  <circle cx="423" cy="291" r="6" fill="white" opacity="0.3"/>
  <circle cx="104" cy="407" r="11" fill="#c8dff0" opacity="0.67"/>
  <circle cx="100" cy="403" r="3" fill="white" opacity="0.3"/>
  <circle cx="155" cy="82" r="19" fill="#c8dff0" opacity="0.99"/>
  <circle cx="149" cy="76" r="6" fill="white" opacity="0.3"/>
  <circle cx="220" cy="434" r="18" fill="#c8dff0" opacity="0.74"/>
  <circle cx="214" cy="429" r="5" fill="white" opacity="0.3"/>
  <circle cx="493" cy="195" r="13" fill="#c8dff0" opacity="0.76"/>
  <circle cx="489" cy="191" r="4" fill="white" opacity="0.3"/>
  <circle cx="127" cy="63" r="21" fill="#c8dff0" opacity="0.71"/>
  <circle cx="121" cy="56" r="6" fill="white" opacity="0.3"/>
  <circle cx="449" cy="308" r="10" fill="#c8dff0" opacity="0.74"/>
  <circle cx="446" cy="305" r="3" fill="white" opacity="0.3"/>
  <circle cx="467" cy="87" r="15" fill="#c8dff0" opacity="0.91"/>
  <circle cx="463" cy="83" r="4" fill="white" opacity="0.3"/>
  <circle cx="330" cy="129" r="22" fill="#c8dff0" opacity="0.83"/>
  <circle cx="324" cy="122" r="7" fill="white" opacity="0.3"/>
  <circle cx="65" cy="247" r="12" fill="#c8dff0" opacity="0.82"/>
  <circle cx="62" cy="243" r="4" fill="white" opacity="0.3"/>
  <circle cx="324" cy="212" r="19" fill="#c8dff0" opacity="0.75"/>
  <circle cx="318" cy="207" r="6" fill="white" opacity="0.3"/>
  <circle cx="143" cy="392" r="11" fill="#c8dff0" opacity="0.77"/>
  <circle cx="139" cy="389" r="3" fill="white" opacity="0.3"/>
  <circle cx="387" cy="301" r="14" fill="#c8dff0" opacity="0.96"/>
  <circle cx="382" cy="297" r="4" fill="white" opacity="0.3"/>
  <circle cx="429" cy="427" r="15" fill="#c8dff0" opacity="0.60"/>
  <circle cx="425" cy="423" r="4" fill="white" opacity="0.3"/>
  <circle cx="306" cy="85" r="19" fill="#c8dff0" opacity="0.98"/>
  <circle cx="300" cy="79" r="6" fill="white" opacity="0.3"/>
  <circle cx="351" cy="151" r="12" fill="#c8dff0" opacity="0.99"/>
  <circle cx="347" cy="147" r="4" fill="white" opacity="0.3"/>
  <circle cx="180" cy="278" r="13" fill="#c8dff0" opacity="0.67"/>
  <circle cx="176" cy="275" r="4" fill="white" opacity="0.3"/>
  <circle cx="307" cy="167" r="13" fill="#c8dff0" opacity="0.95"/>
  <circle cx="302" cy="163" r="4" fill="white" opacity="0.3"/>
  <circle cx="192" cy="368" r="25" fill="#c8dff0" opacity="0.83"/>
  <circle cx="185" cy="360" r="7" fill="white" opacity="0.3"/>
  <circle cx="425" cy="140" r="16" fill="#c8dff0" opacity="0.78"/>
  <circle cx="421" cy="136" r="5" fill="white" opacity="0.3"/>
  <circle cx="395" cy="203" r="21" fill="#c8dff0" opacity="0.74"/>
  <circle cx="389" cy="196" r="6" fill="white" opacity="0.3"/>
  <circle cx="245" cy="213" r="23" fill="#c8dff0" opacity="0.91"/>
  <circle cx="238" cy="206" r="7" fill="white" opacity="0.3"/>
  <circle cx="476" cy="329" r="13" fill="#c8dff0" opacity="0.85"/>
  <circle cx="472" cy="325" r="4" fill="white" opacity="0.3"/>
  <circle cx="462" cy="71" r="21" fill="#c8dff0" opacity="0.62"/>
  <circle cx="456" cy="64" r="6" fill="white" opacity="0.3"/>
  <circle cx="324" cy="169" r="13" fill="#c8dff0" opacity="0.87"/>
  <circle cx="320" cy="165" r="4" fill="white" opacity="0.3"/>
  <circle cx="397" cy="299" r="16" fill="#c8dff0" opacity="0.94"/>
  <circle cx="392" cy="294" r="5" fill="white" opacity="0.3"/>
  <circle cx="423" cy="223" r="23" fill="#c8dff0" opacity="0.63"/>
  <circle cx="416" cy="217" r="7" fill="white" opacity="0.3"/>
  <circle cx="100" cy="64" r="15" fill="#c8dff0" opacity="0.86"/>
  <circle cx="96" cy="60" r="5" fill="white" opacity="0.3"/>
  <circle cx="182" cy="440" r="15" fill="#c8dff0" opacity="0.92"/>
  <circle cx="178" cy="435" r="5" fill="white" opacity="0.3"/>
  <circle cx="514" cy="177" r="13" fill="#c8dff0" opacity="0.99"/>
  <circle cx="510" cy="173" r="4" fill="white" opacity="0.3"/>
  <circle cx="330" cy="245" r="16" fill="#c8dff0" opacity="0.95"/>
  <circle cx="325" cy="240" r="5" fill="white" opacity="0.3"/>
  <circle cx="345" cy="433" r="13" fill="#c8dff0" opacity="0.64"/>
  <circle cx="341" cy="429" r="4" fill="white" opacity="0.3"/>
  <circle cx="429" cy="321" r="16" fill="#c8dff0" opacity="0.85"/>
  <circle cx="424" cy="316" r="5" fill="white" opacity="0.3"/>
  <circle cx="407" cy="214" r="13" fill="#c8dff0" opacity="0.98"/>
  <circle cx="403" cy="211" r="4" fill="white" opacity="0.3"/>
  <circle cx="539" cy="151" r="21" fill="#c8dff0" opacity="0.67"/>
  <circle cx="533" cy="145" r="6" fill="white" opacity="0.3"/>
  <circle cx="316" cy="174" r="11" fill="#c8dff0" opacity="0.92"/>
  <circle cx="313" cy="171" r="3" fill="white" opacity="0.3"/>
  <circle cx="474" cy="81" r="17" fill="#c8dff0" opacity="0.87"/>
  <circle cx="469" cy="76" r="5" fill="white" opacity="0.3"/>
  <circle cx="186" cy="132" r="12" fill="#c8dff0" opacity="0.84"/>
  <circle cx="182" cy="129" r="4" fill="white" opacity="0.3"/>
  <circle cx="288" cy="418" r="26" fill="#c8dff0" opacity="0.92"/>
  <circle cx="281" cy="410" r="8" fill="white" opacity="0.3"/>
  <circle cx="310" cy="165" r="16" fill="#c8dff0" opacity="0.85"/>
  <circle cx="305" cy="160" r="5" fill="white" opacity="0.3"/>
  <circle cx="261" cy="288" r="19" fill="#c8dff0" opacity="0.76"/>
  <circle cx="255" cy="282" r="6" fill="white" opacity="0.3"/>
  <circle cx="525" cy="398" r="17" fill="#c8dff0" opacity="0.61"/>
  <circle cx="519" cy="393" r="5" fill="white" opacity="0.3"/>
  <circle cx="305" cy="260" r="10" fill="#c8dff0" opacity="0.72"/>
  <circle cx="302" cy="257" r="3" fill="white" opacity="0.3"/>
  <circle cx="240" cy="366" r="14" fill="#c8dff0" opacity="0.94"/>
  <circle cx="236" cy="361" r="4" fill="white" opacity="0.3"/>
  <circle cx="465" cy="136" r="18" fill="#c8dff0" opacity="0.97"/>
  <circle cx="459" cy="131" r="5" fill="white" opacity="0.3"/>
  <circle cx="189" cy="120" r="21" fill="#c8dff0" opacity="0.95"/>
  <circle cx="183" cy="114" r="6" fill="white" opacity="0.3"/>
  <circle cx="225" cy="277" r="10" fill="#c8dff0" opacity="0.67"/>
  <circle cx="222" cy="274" r="3" fill="white" opacity="0.3"/>
  <circle cx="266" cy="290" r="12" fill="#c8dff0" opacity="0.70"/>
  <circle cx="262" cy="286" r="4" fill="white" opacity="0.3"/>
  <circle cx="529" cy="430" r="22" fill="#c8dff0" opacity="0.96"/>
  <circle cx="522" cy="423" r="7" fill="white" opacity="0.3"/>
  <circle cx="330" cy="242" r="16" fill="#c8dff0" opacity="0.91"/>
  <circle cx="325" cy="237" r="5" fill="white" opacity="0.3"/>
  <circle cx="359" cy="144" r="20" fill="#c8dff0" opacity="0.61"/>
  <circle cx="353" cy="138" r="6" fill="white" opacity="0.3"/>
  <circle cx="456" cy="202" r="21" fill="#c8dff0" opacity="0.87"/>
  <circle cx="450" cy="195" r="6" fill="white" opacity="0.3"/>
  <circle cx="96" cy="122" r="22" fill="#c8dff0" opacity="0.60"/>
  <circle cx="89" cy="115" r="7" fill="white" opacity="0.3"/>
  <circle cx="443" cy="276" r="15" fill="#c8dff0" opacity="0.65"/>
  <circle cx="438" cy="271" r="5" fill="white" opacity="0.3"/>
  <circle cx="319" cy="164" r="18" fill="#c8dff0" opacity="0.98"/>
  <circle cx="314" cy="159" r="5" fill="white" opacity="0.3"/>
  <circle cx="424" cy="66" r="26" fill="#c8dff0" opacity="0.84"/>
  <circle cx="416" cy="59" r="8" fill="white" opacity="0.3"/>
  <circle cx="123" cy="256" r="16" fill="#c8dff0" opacity="0.72"/>
  <circle cx="118" cy="251" r="5" fill="white" opacity="0.3"/>
  <circle cx="440" cy="145" r="16" fill="#c8dff0" opacity="0.94"/>
  <circle cx="435" cy="141" r="5" fill="white" opacity="0.3"/>
  <circle cx="194" cy="267" r="11" fill="#c8dff0" opacity="0.62"/>
  <circle cx="190" cy="264" r="3" fill="white" opacity="0.3"/>
  <circle cx="85" cy="397" r="22" fill="#c8dff0" opacity="0.90"/>
  <circle cx="78" cy="390" r="7" fill="white" opacity="0.3"/>
  <circle cx="157" cy="198" r="18" fill="#c8dff0" opacity="0.84"/>
  <circle cx="152" cy="193" r="5" fill="white" opacity="0.3"/>
  <circle cx="260" cy="403" r="22" fill="#c8dff0" opacity="0.60"/>
  <circle cx="253" cy="396" r="7" fill="white" opacity="0.3"/>
  <circle cx="211" cy="85" r="10" fill="#c8dff0" opacity="0.87"/>
  <circle cx="208" cy="82" r="3" fill="white" opacity="0.3"/>
  <circle cx="95" cy="398" r="14" fill="#c8dff0" opacity="0.66"/>
  <circle cx="91" cy="394" r="4" fill="white" opacity="0.3"/>
  <circle cx="540" cy="409" r="16" fill="#c8dff0" opacity="0.94"/>
  <circle cx="535" cy="404" r="5" fill="white" opacity="0.3"/>
  <circle cx="232" cy="141" r="26" fill="#c8dff0" opacity="0.96"/>
  <circle cx="224" cy="133" r="8" fill="white" opacity="0.3"/>
  <circle cx="346" cy="232" r="24" fill="#c8dff0" opacity="0.71"/>
  <circle cx="339" cy="225" r="7" fill="white" opacity="0.3"/>
  <circle cx="307" cy="282" r="23" fill="#c8dff0" opacity="0.82"/>
  <circle cx="300" cy="275" r="7" fill="white" opacity="0.3"/>
  <circle cx="432" cy="110" r="12" fill="#c8dff0" opacity="0.94"/>
  <circle cx="428" cy="106" r="4" fill="white" opacity="0.3"/>
  <circle cx="320" cy="179" r="14" fill="#c8dff0" opacity="0.77"/>
  <circle cx="316" cy="175" r="4" fill="white" opacity="0.3"/>
  <circle cx="306" cy="411" r="14" fill="#c8dff0" opacity="0.72"/>
  <circle cx="302" cy="407" r="4" fill="white" opacity="0.3"/>
  <circle cx="193" cy="204" r="23" fill="#c8dff0" opacity="0.89"/>
  <circle cx="186" cy="197" r="7" fill="white" opacity="0.3"/>
  <circle cx="359" cy="215" r="15" fill="#c8dff0" opacity="0.77"/>
  <circle cx="354" cy="210" r="5" fill="white" opacity="0.3"/>
  <circle cx="76" cy="311" r="20" fill="#c8dff0" opacity="0.62"/>
  <circle cx="70" cy="305" r="6" fill="white" opacity="0.3"/>
  <circle cx="536" cy="351" r="22" fill="#c8dff0" opacity="0.83"/>
  <circle cx="529" cy="345" r="7" fill="white" opacity="0.3"/>
  <circle cx="356" cy="401" r="23" fill="#c8dff0" opacity="0.62"/>
  <circle cx="350" cy="394" r="7" fill="white" opacity="0.3"/>
  <circle cx="311" cy="154" r="26" fill="#c8dff0" opacity="0.85"/>
  <circle cx="303" cy="146" r="8" fill="white" opacity="0.3"/>
  <circle cx="474" cy="368" r="15" fill="#c8dff0" opacity="0.61"/>
  <circle cx="470" cy="364" r="4" fill="white" opacity="0.3"/>
  <circle cx="396" cy="153" r="22" fill="#c8dff0" opacity="0.81"/>
  <circle cx="389" cy="147" r="7" fill="white" opacity="0.3"/>
  <circle cx="394" cy="280" r="11" fill="#c8dff0" opacity="0.82"/>
  <circle cx="391" cy="277" r="3" fill="white" opacity="0.3"/>
  <circle cx="472" cy="404" r="16" fill="#c8dff0" opacity="0.85"/>
  <circle cx="467" cy="399" r="5" fill="white" opacity="0.3"/>
  <circle cx="395" cy="232" r="25" fill="#c8dff0" opacity="0.76"/>
  <circle cx="387" cy="224" r="7" fill="white" opacity="0.3"/>
  <circle cx="113" cy="141" r="17" fill="#c8dff0" opacity="0.62"/>
  <circle cx="108" cy="136" r="5" fill="white" opacity="0.3"/>
  <circle cx="353" cy="155" r="18" fill="#c8dff0" opacity="0.85"/>
  <circle cx="348" cy="150" r="5" fill="white" opacity="0.3"/>
  <circle cx="82" cy="417" r="15" fill="#c8dff0" opacity="0.90"/>
  <circle cx="78" cy="412" r="5" fill="white" opacity="0.3"/>
  <circle cx="326" cy="236" r="16" fill="#c8dff0" opacity="0.97"/>
  <circle cx="322" cy="231" r="5" fill="white" opacity="0.3"/>
  <circle cx="267" cy="383" r="20" fill="#c8dff0" opacity="0.69"/>
  <circle cx="261" cy="377" r="6" fill="white" opacity="0.3"/>
  <circle cx="98" cy="96" r="24" fill="#c8dff0" opacity="0.94"/>
  <circle cx="91" cy="89" r="7" fill="white" opacity="0.3"/>
  <circle cx="219" cy="209" r="13" fill="#c8dff0" opacity="0.61"/>
  <circle cx="215" cy="205" r="4" fill="white" opacity="0.3"/>

  <rect x="0" y="480" width="600" height="120" fill="white"/>
  <line x1="0" y1="480" x2="600" y2="480" stroke="#e5e7eb" stroke-width="1"/>
  <text x="300" y="525" text-anchor="middle" font-family="system-ui,-apple-system,sans-serif" font-size="26" font-weight="700" fill="#1f2937">PE Trong</text>
  <text x="300" y="558" text-anchor="middle" font-family="system-ui,-apple-system,sans-serif" font-size="15" fill="#6b7280">Hạt nhựa tái chế chất lượng cao</text>
</svg>