<svg xmlns="http://www.w3.org/2000/svg" width="600" height="600" viewBox="0 0 600 600">
  <rect width="600" height="600" fill="#ffebee" rx="12"/>
  <rect x="30" y="30" width="540" height="440" rx="16" fill="white" opacity="0.6"/>
  <circle cx="488" cy="319" r="12" fill="#E53935" opacity="0.68"/>
  <circle cx="485" cy="316" r="4" fill="white" opacity="0.3"/>
  <circle cx="126" cy="335" r="17" fill="#E53935" opacity="0.64"/>
  <circle cx="121" cy="330" r="5" fill="white" opacity="0.3"/>
  <circle cx="115" cy="146" r="26" fill="#E53935" opacity="0.95"/>
  <circle cx="107" cy="138" r="8" fill="white" opacity="0.3"/>
  <circle cx="116" cy="181" r="12" fill="#E53935" opacity="0.66"/>
  <circle cx="112" cy="177" r="4" fill="white" opacity="0.3"/>
  <circle cx="444" cy="182" r="15" fill="#E53935" opacity="0.67"/>
  <circle cx="439" cy="178" r="4" fill="white" opacity="0.3"/>
  <circle cx="451" cy="401" r="22" fill="#E53935" opacity="0.71"/>
  <circle cx="444" cy="395" r="7" fill="white" opacity="0.3"/>
  <circle cx="467" cy="277" r="15" fill="#E53935" opacity="0.86"/>
  <circle cx="462" cy="272" r="4" fill="white" opacity="0.3"/>
  <circle cx="89" cy="130" r="17" fill="#E53935" opacity="0.97"/>
  <circle cx="84" cy="125" r="5" fill="white" opacity="0.3"/>
  <circle cx="200" cy="183" r="21" fill="#E53935" opacity="0.65"/>
  <circle cx="194" cy="177" r="6" fill="white" opacity="0.3"/>
  <circle cx="402" cy="233" r="16" fill="#E53935" opacity="0.62"/>
  <circle cx="397" cy="228" r="5" fill="white" opacity="0.3"/>
  <circle cx="350" cy="289" r="17" fill="#E53935" opacity="0.80"/>
  <circle cx="345" cy="284" r="5" fill="white" opacity="0.3"/>
  <circle cx="128" cy="91" r="26" fill="#E53935" opacity="0.65"/>
  <circle cx="120" cy="83" r="8" fill="white" opacity="0.3"/>
  <circle cx="83" cy="132" r="15" fill="#E53935" opacity="0.98"/>
  <circle cx="79" cy="128" r="5" fill="white" opacity="0.3"/>
  <circle cx="536" cy="236" r="24" fill="#E53935" opacity="0.68"/>
  <circle cx="529" cy="228" r="7" fill="white" opacity="0.3"/>
  <circle cx="313" cy="298" r="14" fill="#E53935" opacity="0.72"/>
  <circle cx="309" cy="294" r="4" fill="white" opacity="0.3"/>
  <circle cx="86" cy="395" r="20" fill="#E53935" opacity="0.61"/>
  <circle cx="80" cy="389" r="6" fill="white" opacity="0.3"/>
  <circle cx="191" cy="158" r="14" fill="#E53935" opacity="0.68"/>
  <circle cx="187" cy="154" r="4" fill="white" opacity="0.3"/>
  <circle cx="506" cy="429" r="25" fill="#E53935" opacity="0.99"/>
  <circle cx="498" cy="422" r="8" fill="white" opacity="0.3"/>
  <circle cx="376" cy="375" r="20" fill="#E53935" opacity="0.91"/>
  <circle cx="370" cy="369" r="6" fill="white" opacity="0.3"/>
  <circle cx="125" cy="212" r="12" fill="#E53935" opacity="0.93"/>
  <circle cx="122" cy="209" r="4" fill="white" opacity="0.3"/>
  <circle cx="523" cy="309" r="20" fill="#E53935" opacity="0.67"/>
  <circle cx="517" cy="303" r="6" fill="white" opacity="0.3"/>
  <circle cx="471" cy="217" r="14" fill="#E53935" opacity="0.64"/>
  <circle cx="466" cy="213" r="4" fill="white" opacity="0.3"/>
  <circle cx="406" cy="60" r="19" fill="#E53935" opacity="0.62"/>
  <circle cx="400" cy="54" r="6" fill="white" opacity="0.3"/>
  <circle cx="141" cy="204" r="24" fill="#E53935" opacity="0.73"/>
  <circle cx="134" cy="196" r="7" fill="white" opacity="0.3"/>
  <circle cx="123" cy="233" r="19" fill="#E53935" opacity="0.69"/>
  <circle cx="117" cy="227" r="6" fill="white" opacity="0.3"/>
  <circle cx="418" cy="422" r="12" fill="#E53935" opacity="0.75"/>
  <circle cx="414" cy="418" r="4" fill="white" opacity="0.3"/>
  <circle cx="208" cy="334" r="11" fill="#E53935" opacity="0.99"/>
  <circle cx="205" cy="331" r="3" fill="white" opacity="0.3"/>
  <circle cx="234" cy="155" r="12" fill="#E53935" opacity="0.72"/>
  <circle cx="230" cy="151" r="4" fill="white" opacity="0.3"/>
  <circle cx="251" cy="316" r="20" fill="#E53935" opacity="0.96"/>
  <circle cx="244" cy="310" r="6" fill="white" opacity="0.3"/>
  <circle cx="535" cy="111" r="12" fill="#E53935" opacity="0.72"/>
  <circle cx="532" cy="108" r="4" fill="white" opacity="0.3"/>
  <circle cx="425" cy="101" r="15" fill="#E53935" opacity="0.84"/>
  <circle cx="420" cy="96" r="4" fill="white" opacity="0.3"/>
  <circle cx="98" cy="383" r="18" fill="#E53935" opacity="0.86"/>
  <circle cx="93" cy="377" r="6" fill="white" opacity="0.3"/>
  <circle cx="338" cy="274" r="10" fill="#E53935" opacity="0.71"/>
  <circle cx="335" cy="271" r="3" fill="white" opacity="0.3"/>
  <circle cx="291" cy="411" r="16" fill="#E53935" opacity="0.84"/>
  <circle cx="286" cy="406" r="5" fill="white" opacity="0.3"/>
  <circle cx="136" cy="347" r="21" fill="#E53935" opacity="0.87"/>
  <circle cx="130" cy="341" r="6" fill="white" opacity="0.3"/>
  <circle cx="353" cy="196" r="18" fill="#E53935" opacity="0.78"/>
  <circle cx="348" cy="191" r="5" fill="white" opacity="0.3"/>
  <circle cx="386" cy="239" r="20" fill="#E53935" opacity="0.75"/>
  <circle cx="380" cy="233" r="6" fill="white" opacity="0.3"/>
  <circle cx="273" cy="207" r="23" fill="#E53935" opacity="0.84"/>
  <circle cx="266" cy="200" r="7" fill="white" opacity="0.3"/>
  <circle cx="227" cy="274" r="20" fill="#E53935" opacity="0.97"/>
  <circle cx="221" cy="268" r="6" fill="white" opacity="0.3"/>
  <circle cx="359" cy="183" r="19" fill="#E53935" opacity="0.97"/>
  <circle cx="354" cy="178" r="6" fill="white" opacity="0.3"/>
  <circle cx="311" cy="342" r="18" fill="#E53935" opacity="0.63"/>
  <circle cx="306" cy="336" r="5" fill="white" opacity="0.3"/>
  <circle cx="356" cy="305" r="23" fill="#E53935" opacity="0.96"/>
  <circle cx="350" cy="298" r="7" fill="white" opacity="0.3"/>
  <circle cx="205" cy="199" r="15" fill="#E53935" opacity="0.78"/>
  <circle cx="200" cy="194" r="5" fill="white" opacity="0.3"/>
  <circle cx="396" cy="298" r="13" fill="#E53935" opacity="0.74"/>
  <circle cx="392" cy="295" r="4" fill="white" opacity="0.3"/>
  <circle cx="230" cy="279" r="26" fill="#E53935" opacity="1.00"/>
  <circle cx="222" cy="271" r="8" fill="white" opacity="0.3"/>
  <circle cx="162" cy="204" r="23" fill="#E53935" opacity="0.64"/>
  <circle cx="155" cy="197" r="7" fill="white" opacity="0.3"/>
  <circle cx="282" cy="439" r="18" fill="#E53935" opacity="0.96"/>
  <circle cx="276" cy="434" r="5" fill="white" opacity="0.3"/>
  <circle cx="427" cy="408" r="20" fill="#E53935" opacity="0.68"/>
  <circle cx="421" cy="402" r="6" fill="white" opacity="0.3"/>
  <circle cx="519" cy="313" r="26" fill="#E53935" opacity="0.70"/>
  <circle cx="511" cy="305" r="8" fill="white" opacity="0.3"/>
  <circle cx="264" cy="181" r="17" fill="#E53935" opacity="0.96"/>
  <circle cx="259" cy="176" r="5" fill="white" opacity="0.3"/>
  <circle cx="330" cy="108" r="20" fill="#E53935" opacity="0.65"/>
  <circle cx="324" cy="102" r="6" fill="white" opacity="0.3"/>
  <circle cx="288" cy="299" r="16" fill="#E53935" opacity="0.89"/>
  <circle cx="283" cy="294" r="5" fill="white" opacity="0.3"/>
  <circle cx="117" cy="91" r="22" fill="#E53935" opacity="0.75"/>
  <circle cx="110" cy="84" r="7" fill="white" opacity="0.3"/>
  <circle cx="119" cy="247" r="13" fill="#E53935" opacity="0.85"/>
  <circle cx="115" cy="243" r="4" fill="white" opacity="0.3"/>
  <circle cx="290" cy="266" r="22" fill="#E53935" opacity="0.65"/>
  <circle cx="283" cy="260" r="7" fill="white" opacity="0.3"/>
  <circle cx="465" cy="317" r="22" fill="#E53935" opacity="0.77"/>
  <circle cx="458" cy="311" r="6" fill="white" opacity="0.3"/>
  <circle cx="135" cy="151" r="18" fill="#E53935" opacity="0.91"/>
  <circle cx="130" cy="145" r="5" fill="white" opacity="0.3"/>
  <circle cx="207" cy="366" r="19" fill="#E53935" opacity="0.92"/>
  <circle cx="201" cy="360" r="6" fill="white" opacity="0.3"/>
  <circle cx="270" cy="84" r="25" fill="#E53935" opacity="0.70"/>
  <circle cx="263" cy="77" r="8" fill="white" opacity="0.3"/>
  <circle cx="454" cy="292" r="23" fill="#E53935" opacity="0.60"/>
  <circle cx="447" cy="285" r="7" fill="white" opacity="0.3"/>
  <circle cx="412" cy="208" r="11" fill="#E53935" opacity="0.87"/>
  <circle cx="409" cy="205" r="3" fill="white" opacity="0.3"/>
  <circle cx="142" cy="401" r="11" fill="#E53935" opacity="0.88"/>
  <circle cx="138" cy="398" r="3" fill="white" opacity="0.3"/>
  <circle cx="263" cy="375" r="16" fill="#E53935" opacity="0.82"/>
  <circle cx="259" cy="370" r="5" fill="white" opacity="0.3"/>
  <circle cx="145" cy="114" r="22" fill="#E53935" opacity="0.72"/>
  <circle cx="139" cy="108" r="6" fill="white" opacity="0.3"/>
  <circle cx="311" cy="224" r="15" fill="#E53935" opacity="0.93"/>
  <circle cx="306" cy="220" r="5" fill="white" opacity="0.3"/>
  <circle cx="99" cy="209" r="15" fill="#E53935" opacity="0.64"/>
  <circle cx="95" cy="204" r="4" fill="white" opacity="0.3"/>
  <circle cx="170" cy="431" r="24" fill="#E53935" opacity="0.74"/>
  <circle cx="163" cy="424" r="7" fill="white" opacity="0.3"/>
  <circle cx="76" cy="291" r="18" fill="#E53935" opacity="0.95"/>
  <circle cx="71" cy="285" r="5" fill="white" opacity="0.3"/>
  <circle cx="198" cy="365" r="14" fill="#E53935" opacity="0.60"/>
  <circle cx="193" cy="361" r="4" fill="white" opacity="0.3"/>
  <circle cx="494" cy="297" r="24" fill="#E53935" opacity="0.61"/>
  <circle cx="487" cy="290" r="7" fill="white" opacity="0.3"/>
  <circle cx="398" cy="215" r="11" fill="#E53935" opacity="0.81"/>
  <circle cx="395" cy="212" r="3" fill="white" opacity="0.3"/>
  <circle cx="498" cy="371" r="12" fill="#E53935" opacity="0.85"/>
  <circle cx="494" cy="368" r="4" fill="white" opacity="0.3"/>
  <circle cx="479" cy="370" r="26" fill="#E53935" opacity="0.69"/>
  <circle cx="472" cy="362" r="8" fill="white" opacity="0.3"/>
  <circle cx="188" cy="70" r="11" fill="#E53935" opacity="0.91"/>
  <circle cx="185" cy="67" r="3" fill="white" opacity="0.3"/>
  <circle cx="301" cy="233" r="19" fill="#E53935" opacity="0.93"/>
  <circle cx="295" cy="228" r="6" fill="white" opacity="0.3"/>
  <circle cx="225" cy="171" r="12" fill="#E53935" opacity="0.88"/>
  <circle cx="221" cy="167" r="4" fill="white" opacity="0.3"/>
  <circle cx="509" cy="358" r="20" fill="#E53935" opacity="0.87"/>
  <circle cx="503" cy="352" r="6" fill="white" opacity="0.3"/>
  <circle cx="126" cy="419" r="17" fill="#E53935" opacity="0.84"/>
  <circle cx="121" cy="414" r="5" fill="white" opacity="0.3"/>
  <circle cx="397" cy="188" r="13" fill="#E53935" opacity="0.99"/>
  <circle cx="394" cy="184" r="4" fill="white" opacity="0.3"/>
  <circle cx="214" cy="309" r="11" fill="#E53935" opacity="0.93"/>
  <circle cx="210" cy="306" r="3" fill="white" opacity="0.3"/>
  <circle cx="262" cy="288" r="23" fill="#E53935" opacity="0.67"/>
  <circle cx="256" cy="281" r="7" fill="white" opacity="0.3"/>
  <circle cx="382" cy="410" r="20" fill="#E53935" opacity="0.80"/>
  <circle cx="376" cy="404" r="6" fill="white" opacity="0.3"/>
  <circle cx="430" cy="107" r="26" fill="#E53935" opacity="0.96"/>
  <circle cx="422" cy="99" r="8" fill="white" opacity="0.3"/>
  <circle cx="416" cy="244" r="13" fill="#E53935" opacity="0.97"/>
  <circle cx="412" cy="241" r="4" fill="white" opacity="0.3"/>
  <circle cx="372" cy="93" r="24" fill="#E53935" opacity="0.94"/>
  <circle cx="365" cy="86" r="7" fill="white" opacity="0.3"/>
  <circle cx="475" cy="142" r="16" fill="#E53935" opacity="0.63"/>
  <circle cx="470" cy="137" r="5" fill="white" opacity="0.3"/>
  <circle cx="454" cy="248" r="13" fill="#E53935" opacity="0.86"/>
  <circle cx="450" cy="244" r="4" fill="white" opacity="0.3"/>
  <circle cx="246" cy="313" r="12" fill="#E53935" opacity="0.97"/>
  <circle cx="242" cy="309" r="4" fill="white" opacity="0.3"/>
  <circle cx="396" cy="241" r="18" fill="#E53935" opacity="0.89"/>
  <circle cx="391" cy="235" r="5" fill="white" opacity="0.3"/>
  <circle cx="196" cy="388" r="22" fill="#E53935" opacity="0.60"/>
  <circle cx="189" cy="381" r="7" fill="white" opacity="0.3"/>

  <rect x="0" y="480" width="600" height="120" fill="white"/>
  <line x1="0" y1="480" x2="600" y2="480" stroke="#e5e7eb" stroke-width="1"/>
  <text x="300" y="525" text-anchor="middle" font-family="system-ui,-apple-system,sans-serif" font-size="26" font-weight="700" fill="#1f2937">PP Đỏ</text>
  <text x="300" y="558" text-anchor="middle" font-family="system-ui,-apple-system,sans-serif" font-size="15" fill="#6b7280">Hạt nhựa tái chế chất lượng cao</text>
</svg>