<svg xmlns="http://www.w3.org/2000/svg" width="600" height="600" viewBox="0 0 600 600">
  <rect width="600" height="600" fill="#fff3e0" rx="12"/>
  <rect x="30" y="30" width="540" height="440" rx="16" fill="white" opacity="0.6"/>
  <circle cx="293" cy="351" r="21" fill="#e8e8e8" opacity="0.84"/>
  <circle cx="287" cy="344" r="6" fill="white" opacity="0.3"/>
  <circle cx="161" cy="279" r="17" fill="#4A90D9" opacity="0.65"/>
  <circle cx="156" cy="274" r="5" fill="white" opacity="0.3"/>
  <circle cx="491" cy="185" r="26" fill="#FDD835" opacity="0.91"/>
  <circle cx="484" cy="177" r="8" fill="white" opacity="0.3"/>
  <circle cx="274" cy="310" r="15" fill="#4CAF50" opacity="0.82"/>
  <circle cx="270" cy="306" r="4" fill="white" opacity="0.3"/>
  <circle cx="217" cy="374" r="15" fill="#4A90D9" opacity="0.83"/>
  <circle cx="212" cy="370" r="4" fill="white" opacity="0.3"/>
  <circle cx="412" cy="381" r="20" fill="#9C27B0" opacity="0.80"/>
  <circle cx="406" cy="375" r="6" fill="white" opacity="0.3"/>
  <circle cx="182" cy="351" r="20" fill="#FF9800" opacity="0.74"/>
  <circle cx="176" cy="345" r="6" fill="white" opacity="0.3"/>
  <circle cx="324" cy="250" r="14" fill="#9C27B0" opacity="0.74"/>
  <circle cx="320" cy="246" r="4" fill="white" opacity="0.3"/>
  <circle cx="460" cy="234" r="17" fill="#9C27B0" opacity="0.93"/>
  <circle cx="455" cy="229" r="5" fill="white" opacity="0.3"/>
  <circle cx="288" cy="196" r="22" fill="#4A90D9" opacity="0.67"/>
  <circle cx="282" cy="189" r="7" fill="white" opacity="0.3"/>
  <circle cx="171" cy="298" r="16" fill="#9C27B0" opacity="0.87"/>
  <circle cx="166" cy="293" r="5" fill="white" opacity="0.3"/>
  <circle cx="140" cy="81" r="14" fill="#9C27B0" opacity="0.74"/>
  <circle cx="136" cy="77" r="4" fill="white" opacity="0.3"/>
  <circle cx="375" cy="337" r="19" fill="#4A90D9" opacity="0.97"/>
  <circle cx="370" cy="331" r="6" fill="white" opacity="0.3"/>
  <circle cx="431" cy="139" r="25" fill="#e8e8e8" opacity="0.98"/>
  <circle cx="424" cy="132" r="8" fill="white" opacity="0.3"/>
  <circle cx="77" cy="377" r="25" fill="#4A90D9" opacity="0.91"/>
  <circle cx="69" cy="369" r="8" fill="white" opacity="0.3"/>
  <circle cx="475" cy="371" r="14" fill="#FF9800" opacity="0.85"/>
  <circle cx="471" cy="367" r="4" fill="white" opacity="0.3"/>
  <circle cx="294" cy="284" r="22" fill="#e8e8e8" opacity="0.93"/>
  <circle cx="287" cy="278" r="7" fill="white" opacity="0.3"/>
  <circle cx="403" cy="112" r="24" fill="#4A90D9" opacity="0.95"/>
  <circle cx="395" cy="104" r="7" fill="white" opacity="0.3"/>
  <circle cx="377" cy="261" r="10" fill="#FDD835" opacity="0.98"/>
  <circle cx="374" cy="258" r="3" fill="white" opacity="0.3"/>
  <circle cx="355" cy="85" r="21" fill="#E53935" opacity="0.95"/>
  <circle cx="348" cy="78" r="6" fill="white" opacity="0.3"/>
  <circle cx="196" cy="353" r="21" fill="#4CAF50" opacity="0.64"/>
  <circle cx="190" cy="346" r="6" fill="white" opacity="0.3"/>
  <circle cx="374" cy="377" r="16" fill="#FF9800" opacity="0.81"/>
  <circle cx="369" cy="372" r="5" fill="white" opacity="0.3"/>
  <circle cx="373" cy="376" r="13" fill="#9C27B0" opacity="0.73"/>
  <circle cx="369" cy="372" r="4" fill="white" opacity="0.3"/>
  <circle cx="112" cy="70" r="24" fill="#9C27B0" opacity="0.97"/>
  <circle cx="105" cy="63" r="7" fill="white" opacity="0.3"/>
  <circle cx="153" cy="367" r="25" fill="#9C27B0" opacity="0.82"/>
  <circle cx="146" cy="359" r="7" fill="white" opacity="0.3"/>
  <circle cx="423" cy="156" r="22" fill="#FDD835" opacity="0.73"/>
  <circle cx="417" cy="149" r="6" fill="white" opacity="0.3"/>
  <circle cx="467" cy="210" r="15" fill="#E53935" opacity="0.79"/>
  <circle cx="463" cy="206" r="5" fill="white" opacity="0.3"/>
  <circle cx="469" cy="61" r="14" fill="#FF9800" opacity="0.80"/>
  <circle cx="465" cy="57" r="4" fill="white" opacity="0.3"/>
  <circle cx="316" cy="429" r="23" fill="#FF9800" opacity="0.73"/>
  <circle cx="309" cy="422" r="7" fill="white" opacity="0.3"/>
  <circle cx="202" cy="206" r="16" fill="#e8e8e8" opacity="0.84"/>
  <circle cx="198" cy="201" r="5" fill="white" opacity="0.3"/>
  <circle cx="486" cy="382" r="22" fill="#E53935" opacity="0.73"/>
  <circle cx="479" cy="375" r="7" fill="white" opacity="0.3"/>
  <circle cx="378" cy="228" r="24" fill="#FF9800" opacity="0.77"/>
  <circle cx="371" cy="220" r="7" fill="white" opacity="0.3"/>
  <circle cx="208" cy="157" r="24" fill="#E53935" opacity="0.69"/>
  <circle cx="201" cy="150" r="7" fill="white" opacity="0.3"/>
  <circle cx="495" cy="407" r="18" fill="#4CAF50" opacity="0.81"/>
  <circle cx="489" cy="401" r="5" fill="white" opacity="0.3"/>
  <circle cx="320" cy="84" r="14" fill="#4A90D9" opacity="0.89"/>
  <circle cx="316" cy="80" r="4" fill="white" opacity="0.3"/>
  <circle cx="191" cy="351" r="25" fill="#E53935" opacity="0.98"/>
  <circle cx="184" cy="343" r="7" fill="white" opacity="0.3"/>
  <circle cx="241" cy="383" r="12" fill="#FF9800" opacity="0.76"/>
  <circle cx="238" cy="379" r="4" fill="white" opacity="0.3"/>
  <circle cx="315" cy="120" r="12" fill="#4A90D9" opacity="0.77"/>
  <circle cx="311" cy="116" r="3" fill="white" opacity="0.3"/>
  <circle cx="99" cy="277" r="25" fill="#FF9800" opacity="0.65"/>
  <circle cx="92" cy="270" r="7" fill="white" opacity="0.3"/>
  <circle cx="307" cy="376" r="14" fill="#e8e8e8" opacity="0.95"/>
  <circle cx="302" cy="372" r="4" fill="white" opacity="0.3"/>
  <circle cx="360" cy="82" r="21" fill="#FDD835" opacity="0.71"/>
  <circle cx="353" cy="76" r="6" fill="white" opacity="0.3"/>
  <circle cx="196" cy="84" r="12" fill="#4CAF50" opacity="0.88"/>
  <circle cx="192" cy="81" r="3" fill="white" opacity="0.3"/>
  <circle cx="247" cy="93" r="21" fill="#4CAF50" opacity="0.87"/>
  <circle cx="241" cy="87" r="6" fill="white" opacity="0.3"/>
  <circle cx="101" cy="371" r="20" fill="#FF9800" opacity="0.81"/>
  <circle cx="95" cy="365" r="6" fill="white" opacity="0.3"/>
  <circle cx="196" cy="102" r="18" fill="#4CAF50" opacity="0.91"/>
  <circle cx="190" cy="96" r="6" fill="white" opacity="0.3"/>
  <circle cx="233" cy="256" r="22" fill="#9C27B0" opacity="0.74"/>
  <circle cx="226" cy="249" r="6" fill="white" opacity="0.3"/>
  <circle cx="145" cy="298" r="24" fill="#4A90D9" opacity="0.91"/>
  <circle cx="138" cy="291" r="7" fill="white" opacity="0.3"/>
  <circle cx="279" cy="124" r="19" fill="#9C27B0" opacity="0.95"/>
  <circle cx="273" cy="119" r="6" fill="white" opacity="0.3"/>
  <circle cx="360" cy="232" r="23" fill="#4CAF50" opacity="0.84"/>
  <circle cx="354" cy="226" r="7" fill="white" opacity="0.3"/>
  <circle cx="467" cy="66" r="24" fill="#9C27B0" opacity="0.75"/>
  <circle cx="460" cy="59" r="7" fill="white" opacity="0.3"/>
  <circle cx="121" cy="362" r="11" fill="#9C27B0" opacity="0.63"/>
  <circle cx="118" cy="359" r="3" fill="white" opacity="0.3"/>
  <circle cx="407" cy="424" r="26" fill="#FDD835" opacity="0.98"/>
  <circle cx="400" cy="416" r="8" fill="white" opacity="0.3"/>
  <circle cx="303" cy="424" r="13" fill="#4CAF50" opacity="0.89"/>
  <circle cx="299" cy="421" r="4" fill="white" opacity="0.3"/>
  <circle cx="67" cy="172" r="13" fill="#E53935" opacity="0.93"/>
  <circle cx="63" cy="168" r="4" fill="white" opacity="0.3"/>
  <circle cx="116" cy="290" r="14" fill="#9C27B0" opacity="0.63"/>
  <circle cx="112" cy="286" r="4" fill="white" opacity="0.3"/>
  <circle cx="154" cy="349" r="16" fill="#e8e8e8" opacity="0.88"/>
  <circle cx="149" cy="344" r="5" fill="white" opacity="0.3"/>
  <circle cx="345" cy="358" r="17" fill="#4CAF50" opacity="0.63"/>
  <circle cx="340" cy="352" r="5" fill="white" opacity="0.3"/>
  <circle cx="247" cy="220" r="11" fill="#E53935" opacity="0.75"/>
  <circle cx="243" cy="217" r="3" fill="white" opacity="0.3"/>
  <circle cx="521" cy="105" r="13" fill="#4CAF50" opacity="0.96"/>
  <circle cx="517" cy="101" r="4" fill="white" opacity="0.3"/>
  <circle cx="456" cy="309" r="16" fill="#9C27B0" opacity="0.73"/>
  <circle cx="451" cy="304" r="5" fill="white" opacity="0.3"/>
  <circle cx="115" cy="329" r="13" fill="#FDD835" opacity="0.68"/>
  <circle cx="112" cy="325" r="4" fill="white" opacity="0.3"/>
  <circle cx="488" cy="125" r="21" fill="#FDD835" opacity="0.72"/>
  <circle cx="482" cy="118" r="6" fill="white" opacity="0.3"/>
  <circle cx="70" cy="290" r="17" fill="#e8e8e8" opacity="0.84"/>
  <circle cx="65" cy="285" r="5" fill="white" opacity="0.3"/>
  <circle cx="90" cy="421" r="13" fill="#FF9800" opacity="0.81"/>
  <circle cx="86" cy="417" r="4" fill="white" opacity="0.3"/>
  <circle cx="326" cy="247" r="15" fill="#4CAF50" opacity="0.91"/>
  <circle cx="322" cy="243" r="4" fill="white" opacity="0.3"/>
  <circle cx="81" cy="412" r="12" fill="#FDD835" opacity="0.93"/>
  <circle cx="78" cy="408" r="3" fill="white" opacity="0.3"/>
  <circle cx="371" cy="125" r="15" fill="#FDD835" opacity="0.65"/>
  <circle cx="367" cy="120" r="4" fill="white" opacity="0.3"/>
  <circle cx="358" cy="108" r="16" fill="#FF9800" opacity="0.90"/>
  <circle cx="353" cy="103" r="5" fill="white" opacity="0.3"/>
  <circle cx="441" cy="379" r="12" fill="#FDD835" opacity="0.78"/>
  <circle cx="437" cy="375" r="4" fill="white" opacity="0.3"/>
  <circle cx="403" cy="142" r="20" fill="#e8e8e8" opacity="0.73"/>
  <circle cx="396" cy="136" r="6" fill="white" opacity="0.3"/>
  <circle cx="364" cy="128" r="23" fill="#FDD835" opacity="0.67"/>
  <circle cx="357" cy="121" r="7" fill="white" opacity="0.3"/>
  <circle cx="103" cy="157" r="24" fill="#E53935" opacity="0.86"/>
  <circle cx="96" cy="150" r="7" fill="white" opacity="0.3"/>
  <circle cx="375" cy="170" r="12" fill="#FF9800" opacity="0.93"/>
  <circle cx="371" cy="166" r="4" fill="white" opacity="0.3"/>
  <circle cx="368" cy="146" r="16" fill="#e8e8e8" opacity="0.74"/>
  <circle cx="364" cy="141" r="5" fill="white" opacity="0.3"/>
  <circle cx="313" cy="88" r="24" fill="#4A90D9" opacity="0.90"/>
  <circle cx="306" cy="81" r="7" fill="white" opacity="0.3"/>
  <circle cx="391" cy="133" r="12" fill="#9C27B0" opacity="0.98"/>
  <circle cx="388" cy="130" r="4" fill="white" opacity="0.3"/>
  <circle cx="438" cy="109" r="16" fill="#E53935" opacity="0.85"/>
  <circle cx="433" cy="104" r="5" fill="white" opacity="0.3"/>
  <circle cx="149" cy="170" r="24" fill="#9C27B0" opacity="0.94"/>
  <circle cx="142" cy="162" r="7" fill="white" opacity="0.3"/>
  <circle cx="203" cy="77" r="22" fill="#9C27B0" opacity="0.72"/>
  <circle cx="196" cy="70" r="7" fill="white" opacity="0.3"/>
  <circle cx="192" cy="213" r="17" fill="#e8e8e8" opacity="0.92"/>
  <circle cx="187" cy="208" r="5" fill="white" opacity="0.3"/>
  <circle cx="297" cy="433" r="15" fill="#e8e8e8" opacity="0.81"/>
  <circle cx="292" cy="429" r="5" fill="white" opacity="0.3"/>
  <circle cx="224" cy="315" r="19" fill="#E53935" opacity="0.77"/>
  <circle cx="218" cy="309" r="6" fill="white" opacity="0.3"/>
  <circle cx="236" cy="186" r="11" fill="#e8e8e8" opacity="1.00"/>
  <circle cx="233" cy="183" r="3" fill="white" opacity="0.3"/>
  <circle cx="401" cy="421" r="15" fill="#4CAF50" opacity="0.62"/>
  <circle cx="397" cy="417" r="4" fill="white" opacity="0.3"/>
  <circle cx="463" cy="376" r="12" fill="#4A90D9" opacity="0.65"/>
  <circle cx="459" cy="372" r="3" fill="white" opacity="0.3"/>
  <circle cx="67" cy="194" r="16" fill="#E53935" opacity="0.93"/>
  <circle cx="62" cy="189" r="5" fill="white" opacity="0.3"/>
  <circle cx="64" cy="383" r="19" fill="#FF9800" opacity="0.67"/>
  <circle cx="58" cy="377" r="6" fill="white" opacity="0.3"/>
  <circle cx="439" cy="282" r="16" fill="#4A90D9" opacity="0.79"/>
  <circle cx="435" cy="277" r="5" fill="white" opacity="0.3"/>
  <circle cx="150" cy="258" r="18" fill="#FDD835" opacity="0.96"/>
  <circle cx="145" cy="253" r="5" fill="white" opacity="0.3"/>
  <circle cx="519" cy="388" r="21" fill="#4CAF50" opacity="0.99"/>
  <circle cx="513" cy="382" r="6" fill="white" opacity="0.3"/>

  <rect x="0" y="480" width="600" height="120" fill="white"/>
  <line x1="0" y1="480" x2="600" y2="480" stroke="#e5e7eb" stroke-width="1"/>
  <text x="300" y="525" text-anchor="middle" font-family="system-ui,-apple-system,sans-serif" font-size="26" font-weight="700" fill="#1f2937">PP Hỗn Hợp</text>
  <text x="300" y="558" text-anchor="middle" font-family="system-ui,-apple-system,sans-serif" font-size="15" fill="#6b7280">Hạt nhựa tái chế chất lượng cao</text>
</svg>