<svg xmlns="http://www.w3.org/2000/svg" width="600" height="600" viewBox="0 0 600 600">
  <rect width="600" height="600" fill="#f8f9fa" rx="12"/>
  <rect x="30" y="30" width="540" height="440" rx="16" fill="white" opacity="0.6"/>
  <circle cx="491" cy="199" r="13" fill="#e8e8e8" opacity="0.70"/>
  <circle cx="487" cy="195" r="4" fill="white" opacity="0.3"/>
  <circle cx="314" cy="418" r="17" fill="#e8e8e8" opacity="0.93"/>
  <circle cx="309" cy="413" r="5" fill="white" opacity="0.3"/>
  <circle cx="331" cy="314" r="20" fill="#e8e8e8" opacity="0.75"/>
  <circle cx="326" cy="308" r="6" fill="white" opacity="0.3"/>
  <circle cx="131" cy="216" r="13" fill="#e8e8e8" opacity="0.87"/>
  <circle cx="127" cy="212" r="4" fill="white" opacity="0.3"/>
  <circle cx="211" cy="131" r="11" fill="#e8e8e8" opacity="0.65"/>
  <circle cx="207" cy="128" r="3" fill="white" opacity="0.3"/>
  <circle cx="352" cy="361" r="22" fill="#e8e8e8" opacity="0.81"/>
  <circle cx="346" cy="354" r="7" fill="white" opacity="0.3"/>
  <circle cx="529" cy="275" r="12" fill="#e8e8e8" opacity="0.78"/>
  <circle cx="525" cy="271" r="4" fill="white" opacity="0.3"/>
  <circle cx="198" cy="298" r="18" fill="#e8e8e8" opacity="0.84"/>
  <circle cx="193" cy="293" r="6" fill="white" opacity="0.3"/>
  <circle cx="315" cy="158" r="24" fill="#e8e8e8" opacity="0.64"/>
  <circle cx="307" cy="151" r="7" fill="white" opacity="0.3"/>
  <circle cx="64" cy="200" r="14" fill="#e8e8e8" opacity="0.61"/>
  <circle cx="59" cy="196" r="4" fill="white" opacity="0.3"/>
  <circle cx="315" cy="421" r="15" fill="#e8e8e8" opacity="0.79"/>
  <circle cx="310" cy="416" r="5" fill="white" opacity="0.3"/>
  <circle cx="142" cy="70" r="13" fill="#e8e8e8" opacity="0.82"/>
  <circle cx="138" cy="66" r="4" fill="white" opacity="0.3"/>
  <circle cx="305" cy="417" r="26" fill="#e8e8e8" opacity="0.69"/>
  <circle cx="297" cy="409" r="8" fill="white" opacity="0.3"/>
  <circle cx="314" cy="357" r="23" fill="#e8e8e8" opacity="0.69"/>
  <circle cx="307" cy="350" r="7" fill="white" opacity="0.3"/>
  <circle cx="177" cy="412" r="13" fill="#e8e8e8" opacity="0.80"/>
  <circle cx="173" cy="408" r="4" fill="white" opacity="0.3"/>
  <circle cx="163" cy="230" r="21" fill="#e8e8e8" opacity="0.77"/>
  <circle cx="156" cy="224" r="6" fill="white" opacity="0.3"/>
  <circle cx="212" cy="392" r="19" fill="#e8e8e8" opacity="0.75"/>
  <circle cx="206" cy="386" r="6" fill="white" opacity="0.3"/>
  <circle cx="98" cy="80" r="13" fill="#e8e8e8" opacity="0.89"/>
  <circle cx="94" cy="76" r="4" fill="white" opacity="0.3"/>
  <circle cx="174" cy="206" r="14" fill="#e8e8e8" opacity="0.64"/>
  <circle cx="170" cy="202" r="4" fill="white" opacity="0.3"/>
  <circle cx="278" cy="165" r="17" fill="#e8e8e8" opacity="0.75"/>
  <circle cx="273" cy="159" r="5" fill="white" opacity="0.3"/>
  <circle cx="124" cy="123" r="10" fill="#e8e8e8" opacity="0.65"/>
  <circle cx="121" cy="120" r="3" fill="white" opacity="0.3"/>
  <circle cx="475" cy="226" r="19" fill="#e8e8e8" opacity="0.77"/>
  <circle cx="470" cy="220" r="6" fill="white" opacity="0.3"/>
  <circle cx="244" cy="83" r="12" fill="#e8e8e8" opacity="0.76"/>
  <circle cx="241" cy="79" r="4" fill="white" opacity="0.3"/>
  <circle cx="101" cy="406" r="20" fill="#e8e8e8" opacity="0.63"/>
  <circle cx="95" cy="400" r="6" fill="white" opacity="0.3"/>
  <circle cx="192" cy="272" r="20" fill="#e8e8e8" opacity="0.90"/>
  <circle cx="187" cy="266" r="6" fill="white" opacity="0.3"/>
  <circle cx="112" cy="242" r="10" fill="#e8e8e8" opacity="0.84"/>
  <circle cx="109" cy="239" r="3" fill="white" opacity="0.3"/>
  <circle cx="317" cy="318" r="23" fill="#e8e8e8" opacity="0.62"/>
  <circle cx="310" cy="311" r="7" fill="white" opacity="0.3"/>
  <circle cx="224" cy="88" r="17" fill="#e8e8e8" opacity="0.67"/>
  <circle cx="219" cy="83" r="5" fill="white" opacity="0.3"/>
  <circle cx="104" cy="138" r="24" fill="#e8e8e8" opacity="0.61"/>
  <circle cx="96" cy="131" r="7" fill="white" opacity="0.3"/>
  <circle cx="76" cy="88" r="23" fill="#e8e8e8" opacity="0.84"/>
  <circle cx="69" cy="81" r="7" fill="white" opacity="0.3"/>
  <circle cx="229" cy="274" r="24" fill="#e8e8e8" opacity="0.65"/>
  <circle cx="222" cy="267" r="7" fill="white" opacity="0.3"/>
  <circle cx="109" cy="244" r="12" fill="#e8e8e8" opacity="0.79"/>
  <circle cx="105" cy="241" r="4" fill="white" opacity="0.3"/>
  <circle cx="203" cy="236" r="22" fill="#e8e8e8" opacity="0.66"/>
  <circle cx="197" cy="230" r="7" fill="white" opacity="0.3"/>
  <circle cx="398" cy="62" r="19" fill="#e8e8e8" opacity="0.77"/>
  <circle cx="392" cy="56" r="6" fill="white" opacity="0.3"/>
  <circle cx="143" cy="354" r="22" fill="#e8e8e8" opacity="0.93"/>
  <circle cx="136" cy="347" r="7" fill="white" opacity="0.3"/>
  <circle cx="131" cy="272" r="26" fill="#e8e8e8" opacity="0.78"/>
  <circle cx="124" cy="264" r="8" fill="white" opacity="0.3"/>
  <circle cx="305" cy="215" r="13" fill="#e8e8e8" opacity="0.67"/>
  <circle cx="301" cy="211" r="4" fill="white" opacity="0.3"/>
  <circle cx="66" cy="259" r="18" fill="#e8e8e8" opacity="0.76"/>
  <circle cx="60" cy="254" r="6" fill="white" opacity="0.3"/>
  <circle cx="472" cy="107" r="13" fill="#e8e8e8" opacity="0.73"/>
  <circle cx="468" cy="103" r="4" fill="white" opacity="0.3"/>
  <circle cx="436" cy="177" r="16" fill="#e8e8e8" opacity="0.87"/>
  <circle cx="431" cy="173" r="5" fill="white" opacity="0.3"/>
  <circle cx="244" cy="189" r="19" fill="#e8e8e8" opacity="0.64"/>
  <circle cx="238" cy="183" r="6" fill="white" opacity="0.3"/>
  <circle cx="83" cy="354" r="11" fill="#e8e8e8" opacity="0.65"/>
  <circle cx="80" cy="350" r="3" fill="white" opacity="0.3"/>
  <circle cx="276" cy="424" r="23" fill="#e8e8e8" opacity="0.98"/>
  <circle cx="269" cy="417" r="7" fill="white" opacity="0.3"/>
  <circle cx="208" cy="410" r="14" fill="#e8e8e8" opacity="0.96"/>
  <circle cx="204" cy="406" r="4" fill="white" opacity="0.3"/>
  <circle cx="268" cy="165" r="13" fill="#e8e8e8" opacity="0.81"/>
  <circle cx="265" cy="161" r="4" fill="white" opacity="0.3"/>
  <circle cx="180" cy="348" r="21" fill="#e8e8e8" opacity="0.84"/>
  <circle cx="173" cy="341" r="6" fill="white" opacity="0.3"/>
  <circle cx="84" cy="87" r="24" fill="#e8e8e8" opacity="0.92"/>
  <circle cx="77" cy="80" r="7" fill="white" opacity="0.3"/>
  <circle cx="520" cy="337" r="13" fill="#e8e8e8" opacity="0.65"/>
  <circle cx="516" cy="333" r="4" fill="white" opacity="0.3"/>
  <circle cx="110" cy="261" r="19" fill="#e8e8e8" opacity="0.81"/>
  <circle cx="104" cy="255" r="6" fill="white" opacity="0.3"/>
  <circle cx="346" cy="180" r="12" fill="#e8e8e8" opacity="0.73"/>
  <circle cx="343" cy="176" r="4" fill="white" opacity="0.3"/>
  <circle cx="464" cy="425" r="16" fill="#e8e8e8" opacity="0.83"/>
  <circle cx="459" cy="420" r="5" fill="white" opacity="0.3"/>
  <circle cx="242" cy="172" r="12" fill="#e8e8e8" opacity="0.72"/>
  <circle cx="238" cy="169" r="4" fill="white" opacity="0.3"/>
  <circle cx="447" cy="357" r="10" fill="#e8e8e8" opacity="0.86"/>
  <circle cx="444" cy="354" r="3" fill="white" opacity="0.3"/>
  <circle cx="345" cy="273" r="21" fill="#e8e8e8" opacity="0.62"/>
  <circle cx="338" cy="267" r="6" fill="white" opacity="0.3"/>
  <circle cx="381" cy="336" r="26" fill="#e8e8e8" opacity="0.71"/>
  <circle cx="373" cy="328" r="8" fill="white" opacity="0.3"/>
  <circle cx="385" cy="268" r="14" fill="#e8e8e8" opacity="0.81"/>
  <circle cx="381" cy="264" r="4" fill="white" opacity="0.3"/>
  <circle cx="172" cy="178" r="15" fill="#e8e8e8" opacity="0.64"/>
  <circle cx="168" cy="174" r="5" fill="white" opacity="0.3"/>
  <circle cx="532" cy="168" r="26" fill="#e8e8e8" opacity="0.68"/>
  <circle cx="524" cy="160" r="8" fill="white" opacity="0.3"/>
  <circle cx="101" cy="244" r="10" fill="#e8e8e8" opacity="0.95"/>
  <circle cx="98" cy="241" r="3" fill="white" opacity="0.3"/>
  <circle cx="130" cy="400" r="22" fill="#e8e8e8" opacity="0.90"/>
  <circle cx="123" cy="393" r="7" fill="white" opacity="0.3"/>
  <circle cx="290" cy="416" r="15" fill="#e8e8e8" opacity="0.95"/>
  <circle cx="285" cy="412" r="4" fill="white" opacity="0.3"/>
  <circle cx="179" cy="291" r="16" fill="#e8e8e8" opacity="0.69"/>
  <circle cx="174" cy="287" r="5" fill="white" opacity="0.3"/>
  <circle cx="276" cy="166" r="12" fill="#e8e8e8" opacity="0.74"/>
  <circle cx="272" cy="162" r="4" fill="white" opacity="0.3"/>
  <circle cx="355" cy="339" r="14" fill="#e8e8e8" opacity="0.62"/>
  <circle cx="351" cy="334" r="4" fill="white" opacity="0.3"/>
  <circle cx="487" cy="242" r="17" fill="#e8e8e8" opacity="0.64"/>
  <circle cx="482" cy="237" r="5" fill="white" opacity="0.3"/>
  <circle cx="408" cy="188" r="24" fill="#e8e8e8" opacity="0.89"/>
  <circle cx="401" cy="181" r="7" fill="white" opacity="0.3"/>
  <circle cx="435" cy="66" r="18" fill="#e8e8e8" opacity="0.77"/>
  <circle cx="429" cy="61" r="5" fill="white" opacity="0.3"/>
  <circle cx="422" cy="362" r="24" fill="#e8e8e8" opacity="0.79"/>
  <circle cx="415" cy="355" r="7" fill="white" opacity="0.3"/>
  <circle cx="321" cy="219" r="22" fill="#e8e8e8" opacity="0.87"/>
  <circle cx="315" cy="213" r="6" fill="white" opacity="0.3"/>
  <circle cx="376" cy="327" r="15" fill="#e8e8e8" opacity="0.90"/>
  <circle cx="372" cy="323" r="4" fill="white" opacity="0.3"/>
  <circle cx="289" cy="328" r="18" fill="#e8e8e8" opacity="0.97"/>
  <circle cx="284" cy="323" r="5" fill="white" opacity="0.3"/>
  <circle cx="509" cy="160" r="14" fill="#e8e8e8" opacity="0.81"/>
  <circle cx="505" cy="156" r="4" fill="white" opacity="0.3"/>
  <circle cx="438" cy="254" r="15" fill="#e8e8e8" opacity="0.76"/>
  <circle cx="434" cy="250" r="4" fill="white" opacity="0.3"/>
  <circle cx="284" cy="88" r="16" fill="#e8e8e8" opacity="0.94"/>
  <circle cx="279" cy="83" r="5" fill="white" opacity="0.3"/>
  <circle cx="402" cy="356" r="12" fill="#e8e8e8" opacity="0.71"/>
  <circle cx="399" cy="353" r="3" fill="white" opacity="0.3"/>
  <circle cx="67" cy="119" r="17" fill="#e8e8e8" opacity="0.74"/>
  <circle cx="62" cy="113" r="5" fill="white" opacity="0.3"/>
  <circle cx="147" cy="281" r="20" fill="#e8e8e8" opacity="0.69"/>
  <circle cx="141" cy="275" r="6" fill="white" opacity="0.3"/>
  <circle cx="160" cy="273" r="12" fill="#e8e8e8" opacity="0.64"/>
  <circle cx="156" cy="270" r="4" fill="white" opacity="0.3"/>
  <circle cx="497" cy="96" r="10" fill="#e8e8e8" opacity="0.99"/>
  <circle cx="494" cy="93" r="3" fill="white" opacity="0.3"/>
  <circle cx="198" cy="417" r="18" fill="#e8e8e8" opacity="0.62"/>
  <circle cx="193" cy="412" r="5" fill="white" opacity="0.3"/>
  <circle cx="375" cy="424" r="15" fill="#e8e8e8" opacity="0.68"/>
  <circle cx="370" cy="420" r="5" fill="white" opacity="0.3"/>
  <circle cx="443" cy="126" r="12" fill="#e8e8e8" opacity="0.68"/>
  <circle cx="440" cy="122" r="4" fill="white" opacity="0.3"/>
  <circle cx="333" cy="333" r="22" fill="#e8e8e8" opacity="0.68"/>
  <circle cx="326" cy="326" r="7" fill="white" opacity="0.3"/>
  <circle cx="115" cy="281" r="25" fill="#e8e8e8" opacity="0.85"/>
  <circle cx="107" cy="273" r="7" fill="white" opacity="0.3"/>
  <circle cx="492" cy="94" r="12" fill="#e8e8e8" opacity="0.98"/>
  <circle cx="488" cy="90" r="4" fill="white" opacity="0.3"/>
  <circle cx="490" cy="333" r="15" fill="#e8e8e8" opacity="0.96"/>
  <circle cx="485" cy="329" r="5" fill="white" opacity="0.3"/>
  <circle cx="266" cy="242" r="21" fill="#e8e8e8" opacity="0.85"/>
  <circle cx="259" cy="236" r="6" fill="white" opacity="0.3"/>
  <circle cx="390" cy="310" r="21" fill="#e8e8e8" opacity="0.65"/>
  <circle cx="384" cy="304" r="6" fill="white" opacity="0.3"/>
  <circle cx="79" cy="185" r="22" fill="#e8e8e8" opacity="0.90"/>
  <circle cx="73" cy="178" r="7" fill="white" opacity="0.3"/>
  <circle cx="383" cy="73" r="18" fill="#e8e8e8" opacity="0.65"/>
  <circle cx="378" cy="68" r="5" fill="white" opacity="0.3"/>

  <rect x="0" y="480" width="600" height="120" fill="white"/>
  <line x1="0" y1="480" x2="600" y2="480" stroke="#e5e7eb" stroke-width="1"/>
  <text x="300" y="525" text-anchor="middle" font-family="system-ui,-apple-system,sans-serif" font-size="26" font-weight="700" fill="#1f2937">PP Trắng</text>
  <text x="300" y="558" text-anchor="middle" font-family="system-ui,-apple-system,sans-serif" font-size="15" fill="#6b7280">Hạt nhựa tái chế chất lượng cao</text>
</svg>