<svg xmlns="http://www.w3.org/2000/svg" width="600" height="600" viewBox="0 0 600 600">
  <rect width="600" height="600" fill="#e3f2fd" rx="12"/>
  <rect x="30" y="30" width="540" height="440" rx="16" fill="white" opacity="0.6"/>
  <circle cx="151" cy="155" r="22" fill="#4A90D9" opacity="0.73"/>
  <circle cx="145" cy="149" r="7" fill="white" opacity="0.3"/>
  <circle cx="310" cy="302" r="12" fill="#4A90D9" opacity="0.70"/>
  <circle cx="307" cy="298" r="4" fill="white" opacity="0.3"/>
  <circle cx="310" cy="220" r="25" fill="#4A90D9" opacity="0.84"/>
  <circle cx="302" cy="213" r="7" fill="white" opacity="0.3"/>
  <circle cx="327" cy="423" r="11" fill="#4A90D9" opacity="0.71"/>
  <circle cx="324" cy="420" r="3" fill="white" opacity="0.3"/>
  <circle cx="72" cy="424" r="15" fill="#4A90D9" opacity="0.63"/>
  <circle cx="68" cy="419" r="4" fill="white" opacity="0.3"/>
  <circle cx="461" cy="337" r="24" fill="#4A90D9" opacity="0.94"/>
  <circle cx="453" cy="330" r="7" fill="white" opacity="0.3"/>
  <circle cx="332" cy="185" r="25" fill="#4A90D9" opacity="0.71"/>
  <circle cx="324" cy="178" r="7" fill="white" opacity="0.3"/>
  <circle cx="444" cy="418" r="11" fill="#4A90D9" opacity="0.75"/>
  <circle cx="441" cy="415" r="3" fill="white" opacity="0.3"/>
  <circle cx="330" cy="369" r="13" fill="#4A90D9" opacity="0.85"/>
  <circle cx="326" cy="366" r="4" fill="white" opacity="0.3"/>
  <circle cx="140" cy="257" r="22" fill="#4A90D9" opacity="0.94"/>
  <circle cx="134" cy="250" r="7" fill="white" opacity="0.3"/>
  <circle cx="453" cy="372" r="11" fill="#4A90D9" opacity="0.61"/>
  <circle cx="449" cy="368" r="3" fill="white" opacity="0.3"/>
  <circle cx="88" cy="418" r="20" fill="#4A90D9" opacity="0.92"/>
  <circle cx="83" cy="412" r="6" fill="white" opacity="0.3"/>
  <circle cx="268" cy="257" r="21" fill="#4A90D9" opacity="0.77"/>
  <circle cx="261" cy="250" r="6" fill="white" opacity="0.3"/>
  <circle cx="505" cy="251" r="21" fill="#4A90D9" opacity="0.86"/>
  <circle cx="498" cy="245" r="6" fill="white" opacity="0.3"/>
  <circle cx="209" cy="202" r="14" fill="#4A90D9" opacity="0.83"/>
  <circle cx="204" cy="198" r="4" fill="white" opacity="0.3"/>
  <circle cx="365" cy="97" r="18" fill="#4A90D9" opacity="0.89"/>
  <circle cx="360" cy="92" r="5" fill="white" opacity="0.3"/>
  <circle cx="315" cy="197" r="18" fill="#4A90D9" opacity="0.88"/>
  <circle cx="309" cy="191" r="5" fill="white" opacity="0.3"/>
  <circle cx="514" cy="408" r="20" fill="#4A90D9" opacity="0.90"/>
  <circle cx="508" cy="401" r="6" fill="white" opacity="0.3"/>
  <circle cx="151" cy="420" r="19" fill="#4A90D9" opacity="0.79"/>
  <circle cx="145" cy="414" r="6" fill="white" opacity="0.3"/>
  <circle cx="161" cy="109" r="17" fill="#4A90D9" opacity="0.91"/>
  <circle cx="156" cy="104" r="5" fill="white" opacity="0.3"/>
  <circle cx="330" cy="308" r="21" fill="#4A90D9" opacity="0.95"/>
  <circle cx="323" cy="302" r="6" fill="white" opacity="0.3"/>
  <circle cx="448" cy="213" r="24" fill="#4A90D9" opacity="0.60"/>
  <circle cx="441" cy="206" r="7" fill="white" opacity="0.3"/>
  <circle cx="311" cy="61" r="21" fill="#4A90D9" opacity="0.98"/>
  <circle cx="305" cy="55" r="6" fill="white" opacity="0.3"/>
  <circle cx="90" cy="378" r="20" fill="#4A90D9" opacity="0.75"/>
  <circle cx="84" cy="372" r="6" fill="white" opacity="0.3"/>
  <circle cx="415" cy="105" r="14" fill="#4A90D9" opacity="0.74"/>
  <circle cx="411" cy="101" r="4" fill="white" opacity="0.3"/>
  <circle cx="232" cy="324" r="11" fill="#4A90D9" opacity="0.74"/>
  <circle cx="229" cy="321" r="3" fill="white" opacity="0.3"/>
  <circle cx="537" cy="417" r="23" fill="#4A90D9" opacity="0.98"/>
  <circle cx="530" cy="410" r="7" fill="white" opacity="0.3"/>
  <circle cx="419" cy="188" r="15" fill="#4A90D9" opacity="0.77"/>
  <circle cx="415" cy="184" r="4" fill="white" opacity="0.3"/>
  <circle cx="207" cy="403" r="21" fill="#4A90D9" opacity="0.85"/>
  <circle cx="201" cy="397" r="6" fill="white" opacity="0.3"/>
  <circle cx="257" cy="357" r="23" fill="#4A90D9" opacity="0.75"/>
  <circle cx="250" cy="351" r="7" fill="white" opacity="0.3"/>
  <circle cx="391" cy="345" r="18" fill="#4A90D9" opacity="0.61"/>
  <circle cx="386" cy="339" r="5" fill="white" opacity="0.3"/>
  <circle cx="232" cy="322" r="19" fill="#4A90D9" opacity="1.00"/>
  <circle cx="227" cy="316" r="6" fill="white" opacity="0.3"/>
  <circle cx="174" cy="99" r="25" fill="#4A90D9" opacity="0.65"/>
  <circle cx="166" cy="92" r="7" fill="white" opacity="0.3"/>
  <circle cx="77" cy="323" r="17" fill="#4A90D9" opacity="0.98"/>
  <circle cx="72" cy="318" r="5" fill="white" opacity="0.3"/>
  <circle cx="349" cy="208" r="11" fill="#4A90D9" opacity="0.83"/>
  <circle cx="346" cy="205" r="3" fill="white" opacity="0.3"/>
  <circle cx="268" cy="129" r="22" fill="#4A90D9" opacity="0.83"/>
  <circle cx="261" cy="122" r="7" fill="white" opacity="0.3"/>
  <circle cx="245" cy="98" r="20" fill="#4A90D9" opacity="0.64"/>
  <circle cx="239" cy="92" r="6" fill="white" opacity="0.3"/>
  <circle cx="382" cy="216" r="23" fill="#4A90D9" opacity="0.66"/>
  <circle cx="375" cy="209" r="7" fill="white" opacity="0.3"/>
  <circle cx="257" cy="249" r="12" fill="#4A90D9" opacity="0.63"/>
  <circle cx="253" cy="246" r="4" fill="white" opacity="0.3"/>
  <circle cx="439" cy="135" r="25" fill="#4A90D9" opacity="0.96"/>
  <circle cx="431" cy="127" r="8" fill="white" opacity="0.3"/>
  <circle cx="303" cy="230" r="13" fill="#4A90D9" opacity="0.74"/>
  <circle cx="300" cy="227" r="4" fill="white" opacity="0.3"/>
  <circle cx="318" cy="273" r="22" fill="#4A90D9" opacity="0.68"/>
  <circle cx="311" cy="266" r="7" fill="white" opacity="0.3"/>
  <circle cx="291" cy="75" r="17" fill="#4A90D9" opacity="0.92"/>
  <circle cx="286" cy="70" r="5" fill="white" opacity="0.3"/>
  <circle cx="419" cy="186" r="25" fill="#4A90D9" opacity="0.95"/>
  <circle cx="412" cy="178" r="7" fill="white" opacity="0.3"/>
  <circle cx="394" cy="72" r="24" fill="#4A90D9" opacity="0.88"/>
  <circle cx="387" cy="65" r="7" fill="white" opacity="0.3"/>
  <circle cx="331" cy="308" r="23" fill="#4A90D9" opacity="0.85"/>
  <circle cx="325" cy="301" r="7" fill="white" opacity="0.3"/>
  <circle cx="291" cy="397" r="21" fill="#4A90D9" opacity="0.94"/>
  <circle cx="285" cy="390" r="6" fill="white" opacity="0.3"/>
  <circle cx="247" cy="216" r="21" fill="#4A90D9" opacity="0.81"/>
  <circle cx="241" cy="209" r="6" fill="white" opacity="0.3"/>
  <circle cx="178" cy="106" r="12" fill="#4A90D9" opacity="0.88"/>
  <circle cx="175" cy="102" r="4" fill="white" opacity="0.3"/>
  <circle cx="198" cy="226" r="19" fill="#4A90D9" opacity="0.76"/>
  <circle cx="193" cy="221" r="6" fill="white" opacity="0.3"/>
  <circle cx="145" cy="401" r="14" fill="#4A90D9" opacity="0.74"/>
  <circle cx="141" cy="397" r="4" fill="white" opacity="0.3"/>
  <circle cx="429" cy="117" r="22" fill="#4A90D9" opacity="0.98"/>
  <circle cx="422" cy="110" r="7" fill="white" opacity="0.3"/>
  <circle cx="531" cy="230" r="15" fill="#4A90D9" opacity="0.63"/>
  <circle cx="527" cy="226" r="4" fill="white" opacity="0.3"/>
  <circle cx="449" cy="402" r="20" fill="#4A90D9" opacity="0.90"/>
  <circle cx="443" cy="396" r="6" fill="white" opacity="0.3"/>
  <circle cx="82" cy="301" r="17" fill="#4A90D9" opacity="0.98"/>
  <circle cx="77" cy="296" r="5" fill="white" opacity="0.3"/>
  <circle cx="197" cy="421" r="25" fill="#4A90D9" opacity="0.78"/>
  <circle cx="189" cy="414" r="7" fill="white" opacity="0.3"/>
  <circle cx="295" cy="122" r="16" fill="#4A90D9" opacity="0.93"/>
  <circle cx="290" cy="117" r="5" fill="white" opacity="0.3"/>
  <circle cx="226" cy="272" r="25" fill="#4A90D9" opacity="0.93"/>
  <circle cx="218" cy="265" r="8" fill="white" opacity="0.3"/>
  <circle cx="232" cy="400" r="19" fill="#4A90D9" opacity="0.93"/>
  <circle cx="226" cy="394" r="6" fill="white" opacity="0.3"/>
  <circle cx="297" cy="113" r="12" fill="#4A90D9" opacity="0.87"/>
  <circle cx="293" cy="110" r="3" fill="white" opacity="0.3"/>
  <circle cx="185" cy="100" r="11" fill="#4A90D9" opacity="0.95"/>
  <circle cx="182" cy="96" r="3" fill="white" opacity="0.3"/>
  <circle cx="413" cy="171" r="25" fill="#4A90D9" opacity="0.62"/>
  <circle cx="406" cy="164" r="8" fill="white" opacity="0.3"/>
  <circle cx="383" cy="244" r="24" fill="#4A90D9" opacity="0.75"/>
  <circle cx="376" cy="237" r="7" fill="white" opacity="0.3"/>
  <circle cx="315" cy="302" r="15" fill="#4A90D9" opacity="0.98"/>
  <circle cx="311" cy="297" r="5" fill="white" opacity="0.3"/>
  <circle cx="462" cy="113" r="11" fill="#4A90D9" opacity="0.63"/>
  <circle cx="459" cy="110" r="3" fill="white" opacity="0.3"/>
  <circle cx="537" cy="354" r="11" fill="#4A90D9" opacity="0.91"/>
  <circle cx="533" cy="351" r="3" fill="white" opacity="0.3"/>
  <circle cx="456" cy="381" r="22" fill="#4A90D9" opacity="0.96"/>
  <circle cx="449" cy="374" r="7" fill="white" opacity="0.3"/>
  <circle cx="522" cy="76" r="18" fill="#4A90D9" opacity="0.65"/>
  <circle cx="517" cy="70" r="5" fill="white" opacity="0.3"/>
  <circle cx="454" cy="250" r="11" fill="#4A90D9" opacity="0.66"/>
  <circle cx="451" cy="247" r="3" fill="white" opacity="0.3"/>
  <circle cx="208" cy="330" r="16" fill="#4A90D9" opacity="0.96"/>
  <circle cx="203" cy="325" r="5" fill="white" opacity="0.3"/>
  <circle cx="509" cy="257" r="12" fill="#4A90D9" opacity="0.83"/>
  <circle cx="505" cy="253" r="4" fill="white" opacity="0.3"/>
  <circle cx="517" cy="288" r="16" fill="#4A90D9" opacity="0.87"/>
  <circle cx="512" cy="283" r="5" fill="white" opacity="0.3"/>
  <circle cx="414" cy="142" r="17" fill="#4A90D9" opacity="0.85"/>
  <circle cx="409" cy="137" r="5" fill="white" opacity="0.3"/>
  <circle cx="533" cy="394" r="22" fill="#4A90D9" opacity="0.98"/>
  <circle cx="527" cy="388" r="7" fill="white" opacity="0.3"/>
  <circle cx="330" cy="227" r="23" fill="#4A90D9" opacity="0.70"/>
  <circle cx="323" cy="220" r="7" fill="white" opacity="0.3"/>
  <circle cx="364" cy="134" r="25" fill="#4A90D9" opacity="0.71"/>
  <circle cx="356" cy="127" r="7" fill="white" opacity="0.3"/>
  <circle cx="378" cy="111" r="19" fill="#4A90D9" opacity="0.68"/>
  <circle cx="372" cy="105" r="6" fill="white" opacity="0.3"/>
  <circle cx="174" cy="178" r="12" fill="#4A90D9" opacity="0.93"/>
  <circle cx="171" cy="174" r="4" fill="white" opacity="0.3"/>
  <circle cx="227" cy="315" r="22" fill="#4A90D9" opacity="0.80"/>
  <circle cx="220" cy="308" r="7" fill="white" opacity="0.3"/>
  <circle cx="130" cy="388" r="26" fill="#4A90D9" opacity="0.77"/>
  <circle cx="122" cy="381" r="8" fill="white" opacity="0.3"/>
  <circle cx="309" cy="226" r="17" fill="#4A90D9" opacity="0.80"/>
  <circle cx="304" cy="221" r="5" fill="white" opacity="0.3"/>
  <circle cx="148" cy="404" r="12" fill="#4A90D9" opacity="0.69"/>
  <circle cx="144" cy="400" r="4" fill="white" opacity="0.3"/>
  <circle cx="539" cy="192" r="25" fill="#4A90D9" opacity="0.84"/>
  <circle cx="532" cy="184" r="7" fill="white" opacity="0.3"/>
  <circle cx="297" cy="182" r="16" fill="#4A90D9" opacity="0.97"/>
  <circle cx="292" cy="177" r="5" fill="white" opacity="0.3"/>
  <circle cx="179" cy="87" r="14" fill="#4A90D9" opacity="0.91"/>
  <circle cx="175" cy="83" r="4" fill="white" opacity="0.3"/>
  <circle cx="390" cy="358" r="22" fill="#4A90D9" opacity="0.83"/>
  <circle cx="384" cy="351" r="7" fill="white" opacity="0.3"/>
  <circle cx="251" cy="416" r="19" fill="#4A90D9" opacity="0.70"/>
  <circle cx="246" cy="411" r="6" fill="white" opacity="0.3"/>
  <circle cx="249" cy="292" r="18" fill="#4A90D9" opacity="0.66"/>
  <circle cx="244" cy="287" r="5" fill="white" opacity="0.3"/>
  <circle cx="232" cy="310" r="25" fill="#4A90D9" opacity="0.98"/>
  <circle cx="225" cy="303" r="8" fill="white" opacity="0.3"/>
  <circle cx="472" cy="291" r="16" fill="#4A90D9" opacity="0.80"/>
  <circle cx="467" cy="287" r="5" fill="white" opacity="0.3"/>

  <rect x="0" y="480" width="600" height="120" fill="white"/>
  <line x1="0" y1="480" x2="600" y2="480" stroke="#e5e7eb" stroke-width="1"/>
  <text x="300" y="525" text-anchor="middle" font-family="system-ui,-apple-system,sans-serif" font-size="26" font-weight="700" fill="#1f2937">PP Xanh Dương</text>
  <text x="300" y="558" text-anchor="middle" font-family="system-ui,-apple-system,sans-serif" font-size="15" fill="#6b7280">Hạt nhựa tái chế chất lượng cao</text>
</svg>